<svg width="540" height="540" viewBox="0 0 540 540" fill="none" xmlns="http://www.w3.org/2000/svg">
<path d="M540 412.992H0V413.262H540V412.992Z" fill="#E6E6E6"/>
<path d="M411.556 421.2H392.278V421.47H411.556V421.2Z" fill="#E6E6E6"/>
<path d="M470.297 421.07H423.241V421.34H470.297V421.07Z" fill="#E6E6E6"/>
<path d="M334.444 425.801H264.276V426.071H334.444V425.801Z" fill="#E6E6E6"/>
<path d="M258.055 425.801H245.938V426.071H258.055V425.801Z" fill="#E6E6E6"/>
<path d="M147.722 420.801H102.362V421.071H147.722V420.801Z" fill="#E6E6E6"/>
<path d="M185.922 420.801H153.716V421.071H185.922V420.801Z" fill="#E6E6E6"/>
<path d="M110.7 425.672H72.2412V425.942H110.7V425.672Z" fill="#E6E6E6"/>
<path d="M255.96 364.824H47.4228C45.7892 364.822 44.2234 364.171 43.0692 363.014C41.9151 361.858 41.2668 360.291 41.2668 358.658V65.5132C41.2811 63.8889 41.9356 62.3358 43.0882 61.1913C44.2408 60.0467 45.7985 59.4032 47.4228 59.4004H255.96C257.596 59.4004 259.164 60.0501 260.321 61.2066C261.477 62.3631 262.127 63.9317 262.127 65.5672V358.658C262.127 360.293 261.477 361.862 260.321 363.018C259.164 364.175 257.596 364.824 255.96 364.824V364.824ZM47.4228 59.6164C45.8608 59.6193 44.3637 60.2418 43.2602 61.3473C42.1566 62.4529 41.5368 63.9511 41.5368 65.5132V358.658C41.5368 360.22 42.1566 361.718 43.2602 362.823C44.3637 363.929 45.8608 364.552 47.4228 364.554H255.96C257.523 364.552 259.021 363.929 260.127 362.824C261.232 361.719 261.854 360.221 261.857 358.658V65.5132C261.854 63.9501 261.232 62.4519 260.127 61.3467C259.021 60.2414 257.523 59.6192 255.96 59.6164H47.4228Z" fill="#E6E6E6"/>
<path d="M489.575 364.824H281.027C279.392 364.822 277.825 364.171 276.669 363.015C275.513 361.859 274.863 360.292 274.86 358.658V65.5132C274.877 63.8879 275.534 62.3348 276.688 61.1906C277.843 60.0463 279.401 59.4031 281.027 59.4004H489.575C491.197 59.406 492.752 60.0508 493.902 61.1951C495.053 62.3393 495.706 63.8908 495.72 65.5132V358.658C495.72 360.289 495.073 361.855 493.921 363.011C492.77 364.166 491.207 364.819 489.575 364.824V364.824ZM281.027 59.6164C279.464 59.6192 277.966 60.2414 276.86 61.3467C275.755 62.4519 275.133 63.9501 275.13 65.5132V358.658C275.133 360.221 275.755 361.719 276.86 362.824C277.966 363.929 279.464 364.552 281.027 364.554H489.575C491.138 364.552 492.636 363.929 493.741 362.824C494.847 361.719 495.469 360.221 495.472 358.658V65.5132C495.469 63.9501 494.847 62.4519 493.741 61.3467C492.636 60.2414 491.138 59.6192 489.575 59.6164H281.027Z" fill="#E6E6E6"/>
<path d="M128.736 412.993H105.84C93.8952 392.127 87.2532 336.215 104.047 275.465C106.922 265.078 110.406 254.869 114.48 244.891C120.787 330.221 148.176 387.721 128.736 412.993Z" fill="#F0F0F0"/>
<path d="M86.4 412.992H109.318C119.956 397.57 123.088 356.249 102.481 311.343C98.8872 303.537 94.7665 295.985 90.1476 288.738C89.1648 351.81 65.394 394.287 86.4 412.992Z" fill="#F5F5F5"/>
<path d="M374.836 327.11C351.594 291.071 354.229 397.256 311.515 350.071C259.049 292.108 183.751 272.678 216.659 317.056C249.566 361.433 230.04 376.79 146.88 327.11C86.6376 291.082 197.726 399.092 167.303 394.988C136.879 390.884 90.936 382.482 130.291 412.992H385.56C385.56 412.992 398.088 363.15 374.836 327.11Z" fill="#F0F0F0"/>
<path d="M423.101 413.263H442.271C452.261 397.365 457.812 354.77 443.772 308.503C441.361 300.561 438.45 292.781 435.056 285.207C429.743 350.201 406.825 393.974 423.101 413.263Z" fill="#EBEBEB"/>
<path d="M458.492 413.263H439.322C430.423 401.512 427.799 370.063 445.046 335.827C448.067 329.845 451.514 324.088 455.36 318.601C456.192 366.65 476.086 399.007 458.492 413.263Z" fill="#EBEBEB"/>
<path d="M409.32 413.263H425.174C432.529 403.543 434.7 377.504 420.433 349.208C417.937 344.26 415.085 339.499 411.901 334.963C411.178 374.761 394.729 401.469 409.32 413.263Z" fill="#EBEBEB"/>
<path d="M150.12 412.993C150.12 412.993 149.04 405.217 137.3 401.21C138.706 402.809 139.765 404.681 140.412 406.708C141.058 408.736 141.279 410.876 141.059 412.993H150.12Z" fill="#FAFAFA"/>
<path d="M206.064 412.993C206.064 412.993 207.144 405.217 218.884 401.21C217.481 402.81 216.424 404.683 215.777 406.71C215.131 408.737 214.909 410.876 215.125 412.993H206.064Z" fill="#E6E6E6"/>
<path d="M356.065 412.993C356.065 412.993 356.81 397.873 364.954 390.107C362.899 397.554 362.017 405.275 362.34 412.993H356.065Z" fill="#E6E6E6"/>
<path d="M468.569 412.992C468.569 412.992 472.36 402.128 489.931 396.533C481.561 404.406 481.226 412.992 481.226 412.992H468.569Z" fill="#E6E6E6"/>
<path d="M72.8676 412.993C72.8676 412.993 69.8867 397.02 91.3248 388.801C85.212 400.378 91.4652 412.993 91.4652 412.993H72.8676Z" fill="#EBEBEB"/>
<path d="M84.7799 412.992C84.7799 412.992 78.7319 399.946 56.8403 393.229C67.9967 402.678 69.5843 412.992 69.5843 412.992H84.7799Z" fill="#EBEBEB"/>
<path d="M156.816 412.993C156.816 412.993 156.028 399.925 141.696 395.194C148.09 401.89 147.722 412.993 147.722 412.993H156.816Z" fill="#FAFAFA"/>
<path d="M282.096 412.992C282.096 412.992 280.292 400.032 260.647 393.293C262.997 395.966 264.769 399.095 265.853 402.485C266.936 405.875 267.308 409.452 266.944 412.992H282.096Z" fill="#FAFAFA"/>
<path d="M282.658 412.992C282.658 412.992 284.461 400.032 304.106 393.293C301.757 395.966 299.984 399.095 298.901 402.485C297.817 405.875 297.446 409.452 297.81 412.992H282.658Z" fill="#FAFAFA"/>
<path d="M293.382 412.992C293.382 412.992 292.064 391.155 268.153 383.228C278.845 394.427 278.23 412.992 278.23 412.992H293.382Z" fill="#FAFAFA"/>
<path d="M428.306 412.992C428.306 412.992 427.388 407.344 439.106 403.337C434.29 408.975 437.335 412.992 437.335 412.992H428.306Z" fill="#FAFAFA"/>
<path d="M427.972 412.993C427.972 412.993 426.892 405.217 415.152 401.21C416.557 402.809 417.616 404.681 418.263 406.708C418.91 408.736 419.13 410.876 418.91 412.993H427.972Z" fill="#FAFAFA"/>
<path d="M421.567 412.993C421.567 412.993 422.345 399.925 436.687 395.194C430.304 401.89 430.661 412.993 430.661 412.993H421.567Z" fill="#FAFAFA"/>
<path d="M470.254 112.321C467.435 107.396 461.754 103.583 457.553 103.821C456.888 103.821 456.234 103.983 455.645 104.291C455.056 104.599 454.551 105.046 454.172 105.592C446.504 99.4578 437.681 95.6886 430.412 96.099C427.206 96.1304 424.136 97.3951 421.837 99.6306C413.608 90.375 403.11 83.8086 395.496 83.8086C391.176 83.8086 388.487 85.9686 387.526 89.4786C379.08 83.2578 370.397 79.4346 363.399 79.4346C352.242 79.4346 348.613 89.1546 353.182 102.773C351.356 105.344 342.555 108.929 342.911 113.228H470.75C470.588 112.925 470.437 112.623 470.254 112.321Z" fill="#F5F5F5"/>
<path d="M345.73 163.156C344.811 163.176 343.918 163.457 343.153 163.966C342.388 164.474 341.784 165.19 341.41 166.029C330.966 156.028 319.183 149.893 309.701 150.574C307.555 150.644 305.453 151.199 303.553 152.198C301.652 153.197 300.003 154.613 298.728 156.341C287.377 141.275 273.229 130.594 263.261 130.594C257.591 130.594 254.221 134.05 253.217 139.817C241.758 129.687 230.159 123.477 221 123.477C209.65 123.477 204.638 133.024 206.204 147.723C200.729 143.403 195.404 140.929 190.976 140.929C184.918 140.929 182.077 145.757 182.563 153.328C182.035 153.329 181.508 153.369 180.986 153.447C171.731 154.71 168.188 164.495 172.638 175.684H362.221C358.063 168.297 350.914 162.789 345.73 163.156Z" fill="#F5F5F5"/>
<path d="M161.579 116.09C161.122 116.09 160.674 116.223 160.291 116.472C159.908 116.721 159.605 117.076 159.419 117.494C154.332 112.623 148.619 109.632 143.964 109.934C142.909 109.962 141.874 110.23 140.938 110.719C140.002 111.207 139.19 111.903 138.564 112.753V112.753C133.024 105.409 126.122 100.203 121.284 100.203C118.519 100.203 116.867 101.888 116.381 104.696C110.797 99.7496 105.138 96.7256 100.678 96.7256C95.1372 96.7256 92.6964 101.38 93.4524 108.606C90.7848 106.521 88.1712 105.29 86.0328 105.29C83.0844 105.29 81.7128 107.644 81.9396 111.338C81.6807 111.322 81.4209 111.322 81.162 111.338C76.6584 111.954 74.9196 116.738 77.0904 122.138H169.528C167.594 118.606 164.16 115.917 161.579 116.09Z" fill="#F5F5F5"/>
<path d="M270 461.765C385.649 461.765 479.401 456.291 479.401 449.539C479.401 442.787 385.649 437.313 270 437.313C154.351 437.313 60.5988 442.787 60.5988 449.539C60.5988 456.291 154.351 461.765 270 461.765Z" fill="#F5F5F5"/>
<path d="M373.151 381.467L372.265 387.752L367.459 449.539H361.757L366.552 387.752L367.438 381.467H373.151Z" fill="#E0E0E0"/>
<path d="M401.976 381.467L402.862 387.752L407.657 449.539H413.359L408.564 387.752L407.678 381.467H401.976Z" fill="#E0E0E0"/>
<path d="M128.628 381.467L127.732 387.752L122.936 449.539H117.245L122.029 387.752L122.926 381.467H128.628Z" fill="#E0E0E0"/>
<path d="M157.442 381.467L158.328 387.752L163.145 449.539H168.847L164.052 387.752L163.156 381.467H157.442Z" fill="#E0E0E0"/>
<path d="M165.186 318.697L156.287 381.467L155.401 387.753H149.699L150.584 381.467L159.484 318.697H165.186Z" fill="#E0E0E0"/>
<path d="M409.698 318.697L400.799 381.467L399.913 387.753H394.211L395.096 381.467L403.996 318.697H409.698Z" fill="#E0E0E0"/>
<path d="M410.627 371.066H149.288L154.148 353.592H415.476L410.627 371.066Z" fill="#1976D2"/>
<path d="M404.665 371.066H143.327L148.176 353.592H409.514L404.665 371.066Z" fill="#1976D2"/>
<path opacity="0.1" d="M410.627 371.066H149.288L154.148 353.592H415.476L410.627 371.066Z" fill="black"/>
<path d="M417.906 327.434H156.568L161.428 309.96H422.755L417.906 327.434Z" fill="#1976D2"/>
<path opacity="0.1" d="M417.906 327.434H156.568L161.428 309.96H422.755L417.906 327.434Z" fill="black"/>
<path d="M411.944 327.434H150.606L155.455 309.96H416.794L411.944 327.434Z" fill="white"/>
<path d="M411.944 327.434H150.606L155.455 309.96H416.794L411.944 327.434Z" fill="#1976D2"/>
<path opacity="0.3" d="M411.944 327.434H150.606L155.455 309.96H416.794L411.944 327.434Z" fill="white"/>
<path d="M414.266 349.239H152.928L157.788 331.754H419.116L414.266 349.239Z" fill="#1976D2"/>
<path d="M408.305 349.239H146.966L151.816 331.754H413.154L408.305 349.239Z" fill="#1976D2"/>
<path opacity="0.1" d="M414.266 349.239H152.928L157.788 331.754H419.116L414.266 349.239Z" fill="black"/>
<path d="M408.305 349.239H146.966L151.816 331.754H413.154L408.305 349.239Z" fill="#1976D2"/>
<path opacity="0.3" d="M408.305 349.239H146.966L151.816 331.754H413.154L408.305 349.239Z" fill="white"/>
<path d="M404.665 371.066H143.327L148.176 353.592H409.514L404.665 371.066Z" fill="#1976D2"/>
<path opacity="0.3" d="M404.665 371.066H143.327L148.176 353.592H409.514L404.665 371.066Z" fill="white"/>
<path d="M379.739 381.467H119.556V387.752H379.739V381.467Z" fill="#1976D2"/>
<path d="M379.739 381.467H119.556V387.752H379.739V381.467Z" fill="#1976D2"/>
<path opacity="0.3" d="M379.739 381.467H119.556V387.752H379.739V381.467Z" fill="white"/>
<path d="M415.487 381.467H379.728V387.752H415.487V381.467Z" fill="#1976D2"/>
<path opacity="0.1" d="M415.487 381.467H379.728V387.752H415.487V381.467Z" fill="black"/>
<path d="M215.482 448.891C214.949 448.933 214.418 448.788 213.98 448.481C213.845 448.357 213.743 448.201 213.684 448.027C213.626 447.854 213.612 447.668 213.646 447.487C213.652 447.375 213.689 447.267 213.751 447.174C213.814 447.081 213.901 447.006 214.002 446.958C214.898 446.526 217.328 448.038 217.598 448.243C217.633 448.26 217.661 448.286 217.681 448.319C217.701 448.351 217.712 448.389 217.712 448.427C217.712 448.465 217.701 448.502 217.681 448.535C217.661 448.567 217.633 448.593 217.598 448.61C216.906 448.783 216.196 448.877 215.482 448.891V448.891ZM214.402 447.271C214.327 447.258 214.25 447.258 214.175 447.271C214.135 447.292 214.101 447.323 214.076 447.361C214.051 447.399 214.037 447.442 214.034 447.487C214.01 447.605 214.016 447.728 214.052 447.843C214.088 447.958 214.152 448.063 214.24 448.146C215.1 448.537 216.076 448.587 216.972 448.286C216.192 447.779 215.318 447.433 214.402 447.271V447.271Z" fill="#1976D2"/>
<path d="M217.49 448.61C217.459 448.62 217.425 448.62 217.393 448.61C216.626 448.178 215.158 446.45 215.33 445.597C215.356 445.452 215.431 445.321 215.544 445.226C215.657 445.131 215.799 445.079 215.946 445.079C216.089 445.059 216.235 445.071 216.373 445.114C216.512 445.157 216.638 445.229 216.745 445.327C217.62 446.083 217.685 448.34 217.696 448.438C217.695 448.472 217.686 448.506 217.669 448.536C217.652 448.567 217.628 448.592 217.598 448.61C217.563 448.622 217.525 448.622 217.49 448.61ZM216.076 445.446H216C215.752 445.446 215.73 445.586 215.719 445.64C215.622 446.148 216.518 447.412 217.274 448.006C217.258 447.142 216.984 446.303 216.486 445.597C216.373 445.496 216.227 445.442 216.076 445.446Z" fill="#1976D2"/>
<path d="M218.592 452.131H226.4L227.383 434.062H219.575L218.592 452.131Z" fill="#E4897B"/>
<path d="M218.16 447.509H226.93C227.082 447.509 227.23 447.564 227.347 447.662C227.463 447.761 227.541 447.898 227.567 448.049L228.744 454.982C228.769 455.156 228.756 455.332 228.707 455.5C228.657 455.668 228.572 455.823 228.457 455.955C228.343 456.087 228.201 456.193 228.042 456.266C227.882 456.338 227.709 456.376 227.534 456.376C224.467 456.322 222.998 456.138 219.132 456.138C216.767 456.138 208.926 456.386 205.654 456.386C202.381 456.386 202.111 453.146 203.494 452.855C209.574 451.537 214.866 449.723 216.886 447.995C217.24 447.688 217.691 447.515 218.16 447.509Z" fill="#263238"/>
<path d="M293.63 297.648C290.898 303.447 288.047 309.139 285.088 314.809C282.128 320.479 279.083 326.095 275.843 331.679L274.612 333.774L274.298 334.303L273.823 335.048C273.488 335.577 273.175 335.934 272.84 336.387C271.654 337.819 270.35 339.148 268.942 340.362C266.412 342.557 263.758 344.605 260.993 346.496C255.637 350.17 250.053 353.499 244.274 356.465L241.034 351.551C245.851 347.522 250.754 343.451 255.344 339.336C257.634 337.284 259.891 335.178 261.824 333.072C262.733 332.11 263.577 331.089 264.352 330.015C264.47 329.799 264.665 329.551 264.719 329.4L265.129 328.601L266.209 326.505C271.782 315.273 277.225 303.761 282.928 292.475L293.63 297.648Z" fill="#E4897B"/>
<path d="M296.892 291.988C299.171 298.976 284.774 319.539 284.774 319.539L269.6 311.04C272.286 304.622 275.626 298.498 279.569 292.766C285.52 284.558 294.408 284.331 296.892 291.988Z" fill="#1976D2"/>
<path d="M241.326 351.389L234.058 355.59L239.317 363.323C239.317 363.323 244.944 360.482 245.538 354.683L241.326 351.389Z" fill="#E4897B"/>
<path d="M229.424 365.094L235.375 364.5L239.317 363.323L234.058 355.59L229.424 365.094Z" fill="#E4897B"/>
<path d="M219.575 434.062H227.383L226.865 443.383H219.056L219.575 434.062Z" fill="#CE6F64"/>
<path d="M290.498 452.131H282.69L276.988 434.062H284.796L290.498 452.131Z" fill="#E4897B"/>
<path d="M281.232 447.509H290.002C290.155 447.507 290.304 447.561 290.421 447.66C290.538 447.759 290.615 447.897 290.639 448.049L291.827 454.982C291.85 455.156 291.836 455.333 291.785 455.501C291.734 455.669 291.648 455.824 291.532 455.956C291.417 456.088 291.275 456.193 291.115 456.266C290.955 456.338 290.782 456.376 290.606 456.376C287.55 456.322 286.07 456.138 282.215 456.138C279.839 456.138 272.009 456.386 268.726 456.386C265.442 456.386 265.194 453.146 266.566 452.855C272.646 451.537 277.938 449.723 279.947 447.995C280.305 447.687 280.76 447.515 281.232 447.509V447.509Z" fill="#263238"/>
<path d="M284.796 434.062H276.988L279.936 443.383H287.744L284.796 434.062Z" fill="#CE6F64"/>
<path d="M278.64 448.891C278.104 448.933 277.57 448.788 277.128 448.481C276.992 448.357 276.89 448.201 276.832 448.027C276.773 447.854 276.76 447.668 276.793 447.487C276.801 447.376 276.838 447.268 276.9 447.175C276.963 447.082 277.049 447.007 277.15 446.958C278.057 446.526 280.487 448.038 280.757 448.243C280.788 448.266 280.813 448.298 280.828 448.334C280.844 448.37 280.849 448.41 280.843 448.448C280.836 448.487 280.818 448.523 280.791 448.552C280.764 448.58 280.73 448.601 280.692 448.61C280.02 448.779 279.332 448.873 278.64 448.891V448.891ZM277.56 447.271C277.481 447.258 277.401 447.258 277.322 447.271C277.283 447.292 277.25 447.322 277.227 447.361C277.204 447.399 277.192 447.443 277.193 447.487C277.168 447.605 277.174 447.728 277.21 447.843C277.246 447.958 277.311 448.063 277.398 448.146C278.255 448.536 279.227 448.586 280.12 448.286C279.343 447.779 278.473 447.434 277.56 447.271V447.271Z" fill="#1976D2"/>
<path d="M280.606 448.61C280.574 448.62 280.54 448.62 280.508 448.61C279.742 448.178 278.262 446.45 278.435 445.597C278.464 445.452 278.543 445.322 278.657 445.227C278.771 445.133 278.913 445.081 279.061 445.079C279.204 445.06 279.35 445.073 279.488 445.116C279.626 445.158 279.753 445.231 279.86 445.327C280.724 446.083 280.8 448.34 280.8 448.437C280.8 448.472 280.791 448.506 280.774 448.536C280.757 448.567 280.732 448.592 280.703 448.61C280.671 448.62 280.637 448.62 280.606 448.61V448.61ZM279.191 445.446H279.104C278.867 445.446 278.834 445.586 278.824 445.64C278.726 446.148 279.634 447.411 280.379 448.005C280.371 447.142 280.099 446.302 279.601 445.597C279.488 445.498 279.342 445.444 279.191 445.446Z" fill="#1976D2"/>
<path d="M329.508 289.191C330.966 289.483 332.197 289.785 333.504 290.142C334.811 290.498 336.064 290.865 337.338 291.222C339.872 292.007 342.392 292.903 344.898 293.911C347.371 294.905 349.812 296.017 352.22 297.27C353.43 297.875 354.618 298.544 355.795 299.225C356.378 299.57 356.962 299.948 357.545 300.305L358.42 300.855C358.474 300.855 358.938 301.19 359.24 301.417C359.572 301.68 359.89 301.961 360.191 302.259C361.255 303.396 362 304.793 362.351 306.309C362.614 307.419 362.701 308.564 362.61 309.701C362.469 311.39 362.106 313.053 361.53 314.647C360.571 317.28 359.356 319.812 357.901 322.207C355.204 326.746 352.079 331.017 348.57 334.962L343.775 331.592C346 327.272 348.192 322.693 349.985 318.287C350.861 316.188 351.562 314.021 352.08 311.807C352.284 310.984 352.375 310.137 352.35 309.29C352.35 309.009 352.253 308.847 352.242 308.923C352.288 309.216 352.428 309.485 352.642 309.69C352.706 309.772 352.783 309.845 352.868 309.906C352.868 309.96 353.117 310.079 352.868 309.96L352.091 309.571C351.572 309.312 351.011 309.031 350.536 308.793C349.456 308.307 348.376 307.8 347.296 307.346C345.136 306.407 342.9 305.564 340.643 304.765C338.386 303.966 336.107 303.231 333.796 302.54C332.64 302.195 331.484 301.849 330.329 301.536L326.959 300.65L329.508 289.191Z" fill="#E4897B"/>
<path d="M342.965 331.884L338.234 338.17L347.954 338.839C347.954 338.839 351.194 332.5 347.771 331.074L342.965 331.884Z" fill="#E4897B"/>
<path d="M338.785 346.972L346.864 347.134L347.987 338.84L338.234 338.17L338.785 346.972Z" fill="#E4897B"/>
<path d="M283.954 354.121C283.954 354.121 229.954 352.264 222.739 373.745C214.823 397.257 216.475 440.824 216.475 440.824H230.04C230.04 440.824 235.256 409.731 238.831 393.963C242.546 377.59 295.272 385.031 301.968 379.048C307.314 374.274 310.014 366.196 310.727 354.121H283.954Z" fill="#1976D2"/>
<path opacity="0.7" d="M283.954 354.121C283.954 354.121 229.954 352.264 222.739 373.745C214.823 397.257 216.475 440.824 216.475 440.824H230.04C230.04 440.824 235.256 409.731 238.831 393.963C242.546 377.59 295.272 385.031 301.968 379.048C307.314 374.274 310.014 366.196 310.727 354.121H283.954Z" fill="black"/>
<path d="M298.76 354.121C298.76 354.121 245.765 356.843 249.48 379.188C253.541 403.661 276.394 440.824 276.394 440.824H290.034C290.034 440.824 280.724 405.097 276.415 389.524C273.445 378.723 310.252 385.031 316.948 379.047C322.294 374.274 324.994 366.195 325.706 354.121H298.76Z" fill="#1976D2"/>
<path opacity="0.6" d="M298.76 354.121C298.76 354.121 245.765 356.843 249.48 379.188C253.541 403.661 276.394 440.824 276.394 440.824H290.034C290.034 440.824 280.724 405.097 276.415 389.524C273.445 378.723 310.252 385.031 316.948 379.047C322.294 374.274 324.994 366.195 325.706 354.121H298.76Z" fill="black"/>
<path d="M230.915 441.148H215.568L215.147 436.288L231.908 436.72L230.915 441.148Z" fill="#1976D2"/>
<path d="M290.844 441.148H275.497L272.516 436.288H290.747L290.844 441.148Z" fill="#1976D2"/>
<path d="M297.086 292.875C294.095 291.428 290.606 292.637 286.859 298.405C283.111 304.172 279.839 313.816 279.45 316.57L284.774 319.54C284.774 319.54 298.08 300.554 297.086 292.875Z" fill="#1976D2"/>
<path opacity="0.1" d="M297.086 292.875C294.095 291.428 290.606 292.637 286.859 298.405C283.111 304.172 279.839 313.816 279.45 316.57L284.774 319.54C284.774 319.54 298.08 300.554 297.086 292.875Z" fill="black"/>
<path d="M331.657 286.2C331.398 287.205 331.15 288.209 330.923 289.214C330.923 289.214 330.923 289.268 330.923 289.3C329.287 296.421 328.083 303.634 327.316 310.9C325.037 331.766 326.171 349.445 325.728 354.1H283.954C277.474 310.198 287.906 286.632 287.906 286.632C287.906 286.632 291.395 285.682 295.823 284.991C297.162 284.775 298.588 284.591 300.024 284.462C305.934 284.116 311.859 284.116 317.768 284.462C319.043 284.526 320.328 284.624 321.57 284.742C326.97 285.293 331.657 286.2 331.657 286.2Z" fill="#1976D2"/>
<path d="M321.57 284.764L320.393 286.384C320.166 286.697 314.744 293.998 303.329 296.05L302.314 296.233L301.374 295.791C297.778 294.095 295.726 291.816 295.283 289.03C295.073 287.667 295.26 286.272 295.823 285.012C297.162 284.796 298.588 284.613 300.024 284.483C305.934 284.137 311.859 284.137 317.768 284.483C319.043 284.548 320.328 284.645 321.57 284.764Z" fill="white"/>
<path d="M298.577 320.393C298.061 320.389 297.551 320.28 297.077 320.074C296.604 319.868 296.177 319.569 295.823 319.194C294.278 317.65 293.533 314.874 293.836 311.634C294.322 306.558 297.227 302.346 300.467 302.054C301.037 302.005 301.611 302.085 302.146 302.289C302.681 302.492 303.163 302.815 303.556 303.232C305.1 304.787 305.845 307.552 305.543 310.792C305.057 315.878 302.152 320.09 298.922 320.382L298.577 320.393ZM300.812 303.113H300.564C297.918 303.35 295.337 307.303 294.916 311.753C294.646 314.561 295.294 317.153 296.59 318.427C296.871 318.733 297.219 318.97 297.607 319.12C297.994 319.269 298.411 319.328 298.825 319.291C301.46 319.054 304.052 315.112 304.474 310.651C304.733 307.843 304.095 305.251 302.789 303.977C302.534 303.71 302.227 303.497 301.887 303.352C301.547 303.207 301.182 303.133 300.812 303.134V303.113Z" fill="white"/>
<path d="M317.045 264.503C315.63 270.205 313.978 280.703 317.768 284.483C317.768 284.483 313.016 290.963 302.756 292.864C295.024 289.213 300.024 284.483 300.024 284.483C306.504 282.96 306.504 278.241 305.672 273.802L317.045 264.503Z" fill="#E4897B"/>
<path d="M312.412 268.294L305.64 273.791C305.864 274.829 305.994 275.884 306.029 276.945C308.48 276.599 311.958 273.921 312.347 271.372C312.553 270.358 312.574 269.316 312.412 268.294Z" fill="#CE6F64"/>
<path d="M299.808 246.931C295.877 248.562 293.231 259.329 298.015 261.803C302.8 264.276 307.238 243.853 299.808 246.931Z" fill="#263238"/>
<path d="M318.168 255.96C317.293 263.693 317.174 268.24 313.06 272.214C311.769 273.523 310.144 274.451 308.361 274.897C306.579 275.343 304.708 275.29 302.953 274.743C301.199 274.197 299.629 273.178 298.415 271.799C297.201 270.419 296.39 268.732 296.071 266.922C294.775 259.967 296.417 248.498 304.15 245.42C305.784 244.699 307.581 244.428 309.356 244.633C311.13 244.838 312.818 245.511 314.246 246.585C315.673 247.658 316.789 249.093 317.479 250.741C318.168 252.388 318.406 254.19 318.168 255.96Z" fill="#E4897B"/>
<path d="M312.12 238.982C316.354 236.315 322.823 238.982 321.516 242.622C319.421 248.508 324.81 242.86 324.756 249.826C324.756 254.372 319.626 265.151 316.386 264.87C313.146 264.589 311.904 258.854 313.87 252.482C315.338 247.687 311.288 249.577 305.402 250.16C293.458 251.327 285.239 235.678 298.987 236.52C312.282 237.33 310.867 230.04 310.867 230.04C310.867 230.04 315.652 237.859 308.102 237.892C300.553 237.924 303.34 244.501 312.12 238.982Z" fill="#263238"/>
<path d="M321.224 264.427C320.103 266.07 318.401 267.227 316.462 267.667C313.913 268.218 312.919 265.928 313.859 263.628C314.701 261.554 317.045 258.768 319.496 259.243C321.948 259.718 322.585 262.44 321.224 264.427Z" fill="#E4897B"/>
<path d="M319.399 244.923C320.449 244.784 321.452 244.398 322.325 243.797C323.198 243.197 323.916 242.398 324.421 241.467C324.421 241.467 324.626 247.59 319.399 244.923Z" fill="#263238"/>
<path d="M306.331 258.12C306.331 258.747 305.932 259.254 305.521 259.254C305.111 259.254 304.808 258.747 304.841 258.12C304.873 257.494 305.23 256.976 305.64 256.976C306.05 256.976 306.364 257.44 306.331 258.12Z" fill="#263238"/>
<path d="M299.214 258.12C299.214 258.747 298.814 259.254 298.404 259.254C297.994 259.254 297.691 258.747 297.724 258.12C297.756 257.494 298.112 256.976 298.523 256.976C298.933 256.976 299.246 257.44 299.214 258.12Z" fill="#263238"/>
<path d="M301.46 258.379C300.604 260.316 299.497 262.131 298.166 263.779C298.591 264.086 299.079 264.296 299.594 264.393C300.109 264.49 300.64 264.472 301.147 264.341L301.46 258.379Z" fill="#DE5753"/>
<path d="M302.908 266.069C302.859 266.069 302.812 266.05 302.778 266.015C302.743 265.981 302.724 265.934 302.724 265.885C302.722 265.861 302.726 265.836 302.735 265.813C302.743 265.79 302.757 265.77 302.774 265.752C302.792 265.735 302.813 265.721 302.836 265.713C302.859 265.704 302.883 265.7 302.908 265.702C303.705 265.71 304.493 265.538 305.215 265.199C305.936 264.861 306.573 264.365 307.076 263.747C307.105 263.707 307.147 263.679 307.195 263.669C307.244 263.659 307.294 263.668 307.336 263.693C307.37 263.727 307.389 263.774 307.389 263.823C307.389 263.871 307.37 263.918 307.336 263.952C306.809 264.621 306.136 265.16 305.368 265.527C304.6 265.894 303.759 266.079 302.908 266.069Z" fill="#263238"/>
<path d="M308.61 255.766C308.551 255.766 308.493 255.752 308.441 255.726C308.388 255.699 308.343 255.661 308.308 255.614C308.053 255.241 307.712 254.933 307.313 254.719C306.915 254.505 306.47 254.39 306.018 254.383C305.969 254.391 305.919 254.388 305.872 254.375C305.824 254.362 305.78 254.339 305.742 254.307C305.704 254.275 305.673 254.236 305.652 254.191C305.631 254.146 305.619 254.098 305.618 254.048C305.612 253.95 305.645 253.853 305.71 253.778C305.774 253.704 305.866 253.657 305.964 253.649C306.544 253.64 307.117 253.776 307.632 254.043C308.146 254.311 308.587 254.702 308.912 255.182C308.968 255.263 308.99 255.362 308.974 255.459C308.958 255.556 308.905 255.643 308.826 255.701C308.762 255.743 308.687 255.766 308.61 255.766V255.766Z" fill="#263238"/>
<path d="M296.244 255.625C296.187 255.636 296.128 255.636 296.071 255.625C295.985 255.577 295.92 255.497 295.892 255.402C295.864 255.307 295.874 255.205 295.92 255.118C296.186 254.585 296.573 254.121 297.049 253.763C297.525 253.405 298.077 253.163 298.663 253.055C298.759 253.042 298.856 253.068 298.933 253.127C299.01 253.186 299.06 253.272 299.074 253.368C299.086 253.465 299.06 253.563 299.002 253.642C298.944 253.72 298.857 253.773 298.76 253.789C298.295 253.885 297.858 254.087 297.483 254.379C297.109 254.671 296.807 255.046 296.6 255.474C296.56 255.529 296.506 255.572 296.443 255.599C296.38 255.625 296.312 255.634 296.244 255.625V255.625Z" fill="#263238"/>
<path d="M330.923 289.191V289.256C330.923 289.256 330.923 289.31 330.923 289.343C329.287 296.464 328.082 303.677 327.316 310.943C322.769 304.538 321.43 297.842 322.229 293.663C323.104 289.04 328.19 288.911 330.923 289.191Z" fill="#1976D2"/>
<path opacity="0.1" d="M330.923 289.191V289.256C330.923 289.256 330.923 289.31 330.923 289.343C329.287 296.464 328.082 303.677 327.316 310.943C322.769 304.538 321.43 297.842 322.229 293.663C323.104 289.04 328.19 288.911 330.923 289.191Z" fill="black"/>
<path d="M324 286.924C329.702 282.193 350.492 293.35 350.492 293.35L338.245 308.696C338.245 308.696 336.085 308.21 327.445 304.322C318.384 300.24 317.876 291.989 324 286.924Z" fill="#1976D2"/>
<path d="M210.784 359.284L209.25 381.467H198.094L197.791 377.072L196.862 363.68L196.56 359.284H210.784Z" fill="#1976D2"/>
<path opacity="0.2" d="M210.784 359.284L209.25 381.467H198.094L197.791 377.072L196.862 363.68L196.56 359.284H210.784Z" fill="black"/>
<path d="M212.004 358.561H195.35V359.997H212.004V358.561Z" fill="#E6E6E6"/>
<path d="M210.978 357.124H196.366V358.56H210.978V357.124Z" fill="#F5F5F5"/>
<path d="M203.04 363.68V377.072H197.651L196.733 363.68H203.04Z" fill="#F5F5F5"/>
</svg>
