<svg width="539" height="539" viewBox="0 0 539 539" fill="none" xmlns="http://www.w3.org/2000/svg">
<path d="M539 412.228H0V412.497H539V412.228Z" fill="#EBEBEB"/>
<path d="M255.486 364.148H47.335C45.7044 364.146 44.1415 363.496 42.9895 362.342C41.8375 361.188 41.1904 359.624 41.1904 357.993V65.3915C41.2046 63.7702 41.8579 62.22 43.0084 61.0776C44.1589 59.9352 45.7137 59.2928 47.335 59.29H255.486C257.119 59.29 258.684 59.9386 259.839 61.0929C260.993 62.2473 261.641 63.8129 261.641 65.4454V357.993C261.641 359.626 260.993 361.191 259.839 362.346C258.684 363.5 257.119 364.148 255.486 364.148ZM47.335 59.5056C45.7759 59.5085 44.2815 60.1299 43.1801 61.2334C42.0786 62.3369 41.4599 63.8324 41.4599 65.3915V357.993C41.4599 359.552 42.0786 361.048 43.1801 362.151C44.2815 363.255 45.7759 363.876 47.335 363.879H255.486C257.046 363.876 258.542 363.255 259.645 362.152C260.748 361.049 261.369 359.553 261.372 357.993V65.3915C261.369 63.8314 260.748 62.3359 259.645 61.2327C258.542 60.1295 257.046 59.5085 255.486 59.5056H47.335Z" fill="#EBEBEB"/>
<path d="M488.668 364.148H280.506C278.875 364.146 277.311 363.496 276.157 362.342C275.003 361.189 274.354 359.625 274.351 357.993V65.3915C274.368 63.7693 275.024 62.219 276.176 61.0769C277.328 59.9348 278.884 59.2928 280.506 59.29H488.668C490.288 59.2956 491.84 59.9393 492.988 61.0814C494.136 62.2235 494.788 63.7721 494.802 65.3915V357.993C494.802 359.622 494.157 361.184 493.007 362.338C491.857 363.492 490.297 364.143 488.668 364.148ZM280.506 59.5056C278.946 59.5085 277.451 60.1295 276.348 61.2327C275.244 62.3359 274.623 63.8314 274.621 65.3915V357.993C274.623 359.553 275.244 361.049 276.348 362.152C277.451 363.255 278.946 363.876 280.506 363.879H488.668C490.228 363.876 491.724 363.255 492.827 362.152C493.93 361.049 494.551 359.553 494.554 357.993V65.3915C494.551 63.8314 493.93 62.3359 492.827 61.2327C491.724 60.1295 490.228 59.5085 488.668 59.5056H280.506Z" fill="#EBEBEB"/>
<path d="M484.992 429.572H456.964V429.842H484.992V429.572Z" fill="#EBEBEB"/>
<path d="M383.8 432.504H335.258V432.773H383.8V432.504Z" fill="#EBEBEB"/>
<path d="M455.886 419.568H390.354V419.838H455.886V419.568Z" fill="#EBEBEB"/>
<path d="M77.2817 421.38H56.5518V421.649H77.2817V421.38Z" fill="#EBEBEB"/>
<path d="M146.489 421.38H86.8867V421.649H146.489V421.38Z" fill="#EBEBEB"/>
<path d="M263.183 425.929H182.904V426.198H263.183V425.929Z" fill="#EBEBEB"/>
<path d="M72.7003 333.123H49.8467V412.227H72.7003V333.123Z" fill="#FAFAFA"/>
<path d="M92.7081 350.479H69.8545V412.227H92.7081V350.479Z" fill="#FAFAFA"/>
<path d="M107.326 299.598H84.4722V412.227H107.326V299.598Z" fill="#FAFAFA"/>
<path d="M122.515 208.27H99.6611V412.227H122.515V208.27Z" fill="#FAFAFA"/>
<path d="M179.045 224.148H117.718V412.227H179.045V224.148Z" fill="#FAFAFA"/>
<path d="M417.488 412.228H443.597V358.09H417.488V412.228Z" fill="#FAFAFA"/>
<path d="M394.613 412.228H420.722V369.97H394.613V412.228Z" fill="#FAFAFA"/>
<path d="M377.925 412.228H404.034V335.14H377.925V412.228Z" fill="#FAFAFA"/>
<path d="M360.57 412.228H386.679V272.637H360.57V412.228Z" fill="#FAFAFA"/>
<path d="M374.605 241.698H294.477V412.227H374.605V241.698Z" fill="#F0F0F0"/>
<path d="M366.973 248.846H363.157V269.597H366.973V248.846Z" fill="#F5F5F5"/>
<path d="M366.973 281.304H363.157V302.055H366.973V281.304Z" fill="#F5F5F5"/>
<path d="M366.973 313.752H363.157V334.503H366.973V313.752Z" fill="#F5F5F5"/>
<path d="M366.973 346.2H363.157V366.952H366.973V346.2Z" fill="#F5F5F5"/>
<path d="M366.973 378.658H363.157V399.41H366.973V378.658Z" fill="#F5F5F5"/>
<path d="M353.455 248.846H349.638V269.597H353.455V248.846Z" fill="#F5F5F5"/>
<path d="M353.455 281.304H349.638V302.055H353.455V281.304Z" fill="#F5F5F5"/>
<path d="M353.455 313.752H349.638V334.503H353.455V313.752Z" fill="#F5F5F5"/>
<path d="M353.455 346.2H349.638V366.952H353.455V346.2Z" fill="#F5F5F5"/>
<path d="M353.455 378.658H349.638V399.41H353.455V378.658Z" fill="#F5F5F5"/>
<path d="M339.936 248.846H336.12V269.597H339.936V248.846Z" fill="#F5F5F5"/>
<path d="M339.936 281.304H336.12V302.055H339.936V281.304Z" fill="#F5F5F5"/>
<path d="M339.936 313.752H336.12V334.503H339.936V313.752Z" fill="#F5F5F5"/>
<path d="M339.936 346.2H336.12V366.952H339.936V346.2Z" fill="#F5F5F5"/>
<path d="M339.936 378.658H336.12V399.41H339.936V378.658Z" fill="#F5F5F5"/>
<path d="M326.418 248.846H322.602V269.597H326.418V248.846Z" fill="#F5F5F5"/>
<path d="M326.418 281.304H322.602V302.055H326.418V281.304Z" fill="#F5F5F5"/>
<path d="M326.418 313.752H322.602V334.503H326.418V313.752Z" fill="#F5F5F5"/>
<path d="M326.418 346.2H322.602V366.952H326.418V346.2Z" fill="#F5F5F5"/>
<path d="M326.418 378.658H322.602V399.41H326.418V378.658Z" fill="#F5F5F5"/>
<path d="M312.889 248.846H309.073V269.597H312.889V248.846Z" fill="#F5F5F5"/>
<path d="M312.889 281.304H309.073V302.055H312.889V281.304Z" fill="#F5F5F5"/>
<path d="M312.889 313.752H309.073V334.503H312.889V313.752Z" fill="#F5F5F5"/>
<path d="M312.889 346.2H309.073V366.952H312.889V346.2Z" fill="#F5F5F5"/>
<path d="M312.889 378.658H309.073V399.41H312.889V378.658Z" fill="#F5F5F5"/>
<path opacity="0.5" d="M294.477 241.698H310.981L318.161 412.227H294.477V241.698Z" fill="#E0E0E0"/>
<path d="M255.087 175.812L302.605 184.802V412.228H255.087V175.812Z" fill="#F0F0F0"/>
<path d="M255.087 175.812H217.066V412.228H255.087V175.812Z" fill="#E6E6E6"/>
<path d="M217.066 196.616H302.605V195.409H217.066V196.616Z" fill="#E0E0E0"/>
<path d="M217.066 209.488H302.605V208.281H217.066V209.488Z" fill="#E0E0E0"/>
<path d="M217.066 222.359H302.605V221.152H217.066V222.359Z" fill="#E0E0E0"/>
<path d="M217.066 235.22H302.605V234.012H217.066V235.22Z" fill="#E0E0E0"/>
<path d="M217.066 248.102H302.605V246.894H217.066V248.102Z" fill="#E0E0E0"/>
<path d="M217.066 260.973H302.605V259.765H217.066V260.973Z" fill="#E0E0E0"/>
<path d="M217.066 273.845H302.605V272.637H217.066V273.845Z" fill="#E0E0E0"/>
<path d="M217.066 286.716H302.605V285.508H217.066V286.716Z" fill="#E0E0E0"/>
<path d="M217.066 299.598H302.605V298.39H217.066V299.598Z" fill="#E0E0E0"/>
<path d="M217.066 312.469H302.605V311.261H217.066V312.469Z" fill="#E0E0E0"/>
<path d="M217.066 325.341H302.605V324.133H217.066V325.341Z" fill="#E0E0E0"/>
<path d="M217.066 338.201H302.605V336.994H217.066V338.201Z" fill="#E0E0E0"/>
<path d="M217.066 351.083H302.605V349.876H217.066V351.083Z" fill="#E0E0E0"/>
<path d="M217.066 363.954H302.605V362.747H217.066V363.954Z" fill="#E0E0E0"/>
<path d="M217.066 376.826H302.605V375.619H217.066V376.826Z" fill="#E0E0E0"/>
<path d="M217.066 389.697H302.605V388.49H217.066V389.697Z" fill="#E0E0E0"/>
<path d="M217.066 402.579H302.605V401.372H217.066V402.579Z" fill="#E0E0E0"/>
<path d="M196.272 125.565H156.526V412.227H196.272V125.565Z" fill="#F0F0F0"/>
<path d="M196.272 125.565H156.526L171.154 100.254H228.073L196.272 125.565Z" fill="#FAFAFA"/>
<path d="M196.271 125.565L228.072 100.254V412.227H196.271V125.565Z" fill="#EBEBEB"/>
<path d="M228.073 138.922H156.526V140.453H228.073V138.922Z" fill="#E0E0E0"/>
<path d="M228.073 155.146H156.526V156.676H228.073V155.146Z" fill="#E0E0E0"/>
<path d="M228.073 171.37H156.526V172.901H228.073V171.37Z" fill="#E0E0E0"/>
<path d="M228.073 187.604H156.526V189.135H228.073V187.604Z" fill="#E0E0E0"/>
<path d="M228.073 203.828H156.526V205.359H228.073V203.828Z" fill="#E0E0E0"/>
<path d="M228.073 220.052H156.526V221.583H228.073V220.052Z" fill="#E0E0E0"/>
<path d="M228.073 236.276H156.526V237.807H228.073V236.276Z" fill="#E0E0E0"/>
<path d="M228.073 252.5H156.526V254.031H228.073V252.5Z" fill="#E0E0E0"/>
<path d="M228.073 268.724H156.526V270.254H228.073V268.724Z" fill="#E0E0E0"/>
<path d="M228.073 284.959H156.526V286.49H228.073V284.959Z" fill="#E0E0E0"/>
<path d="M228.073 301.183H156.526V302.713H228.073V301.183Z" fill="#E0E0E0"/>
<path d="M228.073 317.406H156.526V318.937H228.073V317.406Z" fill="#E0E0E0"/>
<path d="M228.073 333.63H156.526V335.161H228.073V333.63Z" fill="#E0E0E0"/>
<path d="M228.073 349.854H156.526V351.385H228.073V349.854Z" fill="#E0E0E0"/>
<path d="M228.073 366.078H156.526V367.609H228.073V366.078Z" fill="#E0E0E0"/>
<path d="M228.073 382.312H156.526V383.843H228.073V382.312Z" fill="#E0E0E0"/>
<path d="M228.073 398.537H156.526V400.068H228.073V398.537Z" fill="#E0E0E0"/>
<path d="M149.626 264.282H106.237V412.227H149.626V264.282Z" fill="#F0F0F0"/>
<path d="M121.739 271.926H114.775V295.674H121.739V271.926Z" fill="#E6E6E6"/>
<path d="M138.825 271.926H131.861V295.674H138.825V271.926Z" fill="#E6E6E6"/>
<path d="M121.739 302.681H114.775V326.429H121.739V302.681Z" fill="#E6E6E6"/>
<path d="M138.825 302.681H131.861V326.429H138.825V302.681Z" fill="#E6E6E6"/>
<path d="M121.739 333.426H114.775V357.174H121.739V333.426Z" fill="#E6E6E6"/>
<path d="M138.825 333.426H131.861V357.174H138.825V333.426Z" fill="#E6E6E6"/>
<path d="M121.739 364.181H114.775V387.929H121.739V364.181Z" fill="#E6E6E6"/>
<path d="M138.825 364.181H131.861V387.929H138.825V364.181Z" fill="#E6E6E6"/>
<path d="M149.616 264.283H106.237L116.413 254.031H159.803L149.616 264.283Z" fill="white"/>
<path d="M149.616 264.283L159.803 254.031L169.979 264.283V412.228H149.616V264.283Z" fill="#E6E6E6"/>
<path d="M269.5 460.91C384.935 460.91 478.513 455.446 478.513 448.707C478.513 441.967 384.935 436.504 269.5 436.504C154.065 436.504 60.4866 441.967 60.4866 448.707C60.4866 455.446 154.065 460.91 269.5 460.91Z" fill="#F5F5F5"/>
<path d="M449.472 123.518H311.995C306.464 123.518 301.98 128.001 301.98 133.532V438.682C301.98 444.213 306.464 448.696 311.995 448.696H449.472C455.003 448.696 459.487 444.213 459.487 438.682V133.532C459.487 128.001 455.003 123.518 449.472 123.518Z" fill="#1976D2"/>
<path d="M443.241 123.518H305.764C300.233 123.518 295.749 128.001 295.749 133.532V438.682C295.749 444.213 300.233 448.696 305.764 448.696H443.241C448.772 448.696 453.256 444.213 453.256 438.682V133.532C453.256 128.001 448.772 123.518 443.241 123.518Z" fill="#1976D2"/>
<path opacity="0.7" d="M443.241 123.518H305.764C300.233 123.518 295.749 128.001 295.749 133.532V438.682C295.749 444.213 300.233 448.696 305.764 448.696H443.241C448.772 448.696 453.256 444.213 453.256 438.682V133.532C453.256 128.001 448.772 123.518 443.241 123.518Z" fill="white"/>
<g opacity="0.9">
<path opacity="0.9" d="M327.367 123.518H318.84V448.696H327.367V123.518Z" fill="white"/>
<path opacity="0.9" d="M417.585 123.518H412.356V448.696H417.585V123.518Z" fill="white"/>
<path opacity="0.9" d="M295.749 194.148V202.675L453.256 192.92V184.393L295.749 194.148Z" fill="white"/>
<path opacity="0.9" d="M295.76 395.594V404.121H453.267V395.594H295.76Z" fill="white"/>
<path opacity="0.9" d="M295.749 236.718V241.364H453.256V236.718H295.749Z" fill="white"/>
<path opacity="0.9" d="M295.749 346.642V356.409L453.256 303.112V293.346L295.749 346.642Z" fill="white"/>
<path opacity="0.9" d="M350.954 123.518H342.427L365.345 448.707H373.872L350.954 123.518Z" fill="white"/>
</g>
<path d="M425.81 415.343H238.292V356.894H403.581L419.008 369.431C421.14 371.161 422.858 373.347 424.035 375.828C425.212 378.309 425.818 381.022 425.81 383.768V415.343Z" fill="#1976D2"/>
<path opacity="0.5" d="M425.81 415.343H238.292V356.894H403.581L419.008 369.431C421.14 371.161 422.858 373.347 424.035 375.828C425.212 378.309 425.818 381.022 425.81 383.768V415.343Z" fill="black"/>
<path d="M237.214 410.071C237.214 388.737 246.916 371.446 258.774 371.446H235.899C223.965 371.446 214.339 388.694 214.339 410.071C214.339 431.448 224.041 448.707 235.899 448.707H258.817C246.862 448.707 237.214 431.405 237.214 410.071Z" fill="#263238"/>
<path d="M258.817 448.696C270.748 448.696 280.42 431.403 280.42 410.071C280.42 388.739 270.748 371.446 258.817 371.446C246.886 371.446 237.214 388.739 237.214 410.071C237.214 431.403 246.886 448.696 258.817 448.696Z" fill="#263238"/>
<path d="M260.552 440.191C269.013 440.191 275.871 426.706 275.871 410.071C275.871 393.437 269.013 379.952 260.552 379.952C252.092 379.952 245.234 393.437 245.234 410.071C245.234 426.706 252.092 440.191 260.552 440.191Z" fill="white"/>
<path d="M112.694 410.071C112.694 388.737 122.396 371.446 134.254 371.446H111.379C99.4454 371.446 89.8188 388.694 89.8188 410.071C89.8188 431.448 99.5209 448.707 111.379 448.707H134.297C122.364 448.707 112.694 431.405 112.694 410.071Z" fill="#263238"/>
<path d="M134.297 448.696C146.228 448.696 155.9 431.403 155.9 410.071C155.9 388.739 146.228 371.446 134.297 371.446C122.366 371.446 112.694 388.739 112.694 410.071C112.694 431.403 122.366 448.696 134.297 448.696Z" fill="#263238"/>
<path d="M385.256 410.071C385.256 388.737 394.958 371.446 406.816 371.446H383.94C372.018 371.446 362.38 388.694 362.38 410.071C362.38 431.448 372.082 448.707 383.94 448.707H406.859C394.936 448.707 385.256 431.405 385.256 410.071Z" fill="#263238"/>
<path d="M406.859 448.696C418.79 448.696 428.462 431.403 428.462 410.071C428.462 388.739 418.79 371.446 406.859 371.446C394.928 371.446 385.256 388.739 385.256 410.071C385.256 431.403 394.928 448.696 406.859 448.696Z" fill="#263238"/>
<path d="M408.605 440.191C417.065 440.191 423.923 426.706 423.923 410.071C423.923 393.437 417.065 379.952 408.605 379.952C400.145 379.952 393.287 393.437 393.287 410.071C393.287 426.706 400.145 440.191 408.605 440.191Z" fill="white"/>
<path d="M211.687 420.851H183.971L182.419 419.342C180.825 417.744 178.661 416.845 176.404 416.841H107.132C104.874 416.845 102.711 417.744 101.116 419.342L100.168 420.28H97.6451C95.6852 420.28 93.7445 419.893 91.9347 419.14C90.1249 418.388 88.4816 417.285 87.0992 415.896C85.7168 414.507 84.6226 412.858 83.8794 411.044C83.1363 409.231 82.7588 407.288 82.7687 405.328V382.528H239.963L227.458 409.715C226.305 412.975 224.168 415.797 221.343 417.792C218.519 419.786 215.145 420.855 211.687 420.851Z" fill="#1976D2"/>
<path opacity="0.2" d="M211.687 420.851H183.971L182.419 419.342C180.825 417.744 178.661 416.845 176.404 416.841H107.132C104.874 416.845 102.711 417.744 101.116 419.342L100.168 420.28H97.6451C95.6852 420.28 93.7445 419.893 91.9347 419.14C90.1249 418.388 88.4816 417.285 87.0992 415.896C85.7168 414.507 84.6226 412.858 83.8794 411.044C83.1363 409.231 82.7588 407.288 82.7687 405.328V382.528H239.963L227.458 409.715C226.305 412.975 224.168 415.797 221.343 417.792C218.519 419.786 215.145 420.855 211.687 420.851Z" fill="black"/>
<path d="M375.316 285.325C375.221 285.327 375.127 285.301 375.047 285.25C374.985 285.215 374.931 285.169 374.888 285.113C374.844 285.057 374.813 284.993 374.795 284.924C374.777 284.856 374.772 284.785 374.782 284.715C374.792 284.645 374.816 284.577 374.853 284.517L382.399 271.581C382.43 271.512 382.475 271.451 382.531 271.4C382.588 271.35 382.654 271.312 382.726 271.289C382.797 271.266 382.873 271.259 382.948 271.267C383.023 271.275 383.096 271.299 383.161 271.337C383.226 271.375 383.283 271.426 383.327 271.487C383.371 271.548 383.402 271.618 383.417 271.692C383.433 271.765 383.433 271.842 383.417 271.915C383.401 271.989 383.37 272.059 383.326 272.12L375.78 285.056C375.733 285.137 375.665 285.205 375.584 285.252C375.503 285.3 375.41 285.325 375.316 285.325Z" fill="#263238"/>
<path d="M415.116 349.682V334.978C415.116 327.249 403.883 290.78 388.436 283.946C372.988 277.111 335.614 274.071 312.07 275.322C288.527 276.572 257.092 325.815 257.092 325.815L260.509 368.159C265.296 368.159 280.539 366.715 282.77 408.606C282.92 411.559 284.2 414.342 286.345 416.377C288.491 418.412 291.337 419.543 294.294 419.537H376.718C379.487 419.534 382.161 418.532 384.249 416.713C386.337 414.895 387.698 412.383 388.08 409.641C390.236 394.71 395.863 368.127 409.435 368.127C418.954 368.127 425.777 376.276 425.777 385.623C425.78 375.355 423.287 365.24 418.512 356.15L415.116 349.682Z" fill="#1976D2"/>
<path d="M225.83 275.321C182.958 275.321 134.383 325.815 134.383 325.815H257.135C257.135 325.815 288.537 276.583 312.113 275.321H225.83Z" fill="#1976D2"/>
<path opacity="0.4" d="M228.46 275.321C192.347 275.321 154.467 311.154 143.417 322.441C143.142 322.72 142.957 323.074 142.883 323.459C142.81 323.843 142.852 324.241 143.004 324.602C143.156 324.963 143.412 325.271 143.738 325.486C144.065 325.702 144.448 325.816 144.84 325.815H243.865C247.851 325.826 251.783 324.897 255.342 323.102C258.901 321.308 261.986 318.699 264.347 315.488C274.998 300.978 295.512 276.216 312.113 275.321H228.46Z" fill="white"/>
<path d="M257.135 325.814L211.795 361.593L89.7758 361.205C89.7758 361.205 82.7688 371.392 82.7688 382.528H239.963C242.539 375.704 251.573 368.158 260.553 368.158C260.553 355.459 257.135 325.814 257.135 325.814Z" fill="#1976D2"/>
<path opacity="0.2" d="M227.458 351.05C227.329 351.049 227.205 351.002 227.108 350.917C227.011 350.832 226.948 350.715 226.93 350.587C226.911 350.447 226.948 350.306 227.033 350.193C227.118 350.08 227.243 350.005 227.382 349.983C238.266 348.219 248.451 343.481 256.812 336.293C258.465 334.902 259.541 332.946 259.83 330.806C260.119 328.665 259.6 326.494 258.375 324.715C258.33 324.657 258.298 324.591 258.279 324.52C258.261 324.449 258.257 324.375 258.268 324.303C258.279 324.231 258.305 324.162 258.344 324.099C258.382 324.037 258.433 323.984 258.493 323.942C258.553 323.9 258.621 323.871 258.693 323.857C258.765 323.842 258.839 323.842 258.91 323.857C258.982 323.872 259.05 323.901 259.11 323.943C259.17 323.985 259.22 324.038 259.259 324.1C260.633 326.101 261.214 328.54 260.889 330.945C260.564 333.35 259.357 335.548 257.502 337.112C248.995 344.433 238.625 349.254 227.544 351.04L227.458 351.05Z" fill="black"/>
<path d="M89.7756 361.205C89.7756 361.205 111.206 336.228 134.383 325.814H257.135L211.794 361.593L89.7756 361.205Z" fill="#1976D2"/>
<path d="M184.694 361.206H104.199V363.545H184.694V361.206Z" fill="#263238"/>
<path d="M183.023 356.527L187.335 352.215C188.304 351.247 189.532 350.577 190.871 350.285L223.437 343.192C224.582 342.942 225.771 342.979 226.897 343.3L228.644 343.785C229.806 344.113 230.867 344.729 231.728 345.577C232.588 346.425 233.22 347.477 233.564 348.634C233.908 349.792 233.954 351.018 233.697 352.199C233.44 353.379 232.888 354.475 232.093 355.384L225.086 363.394C223.878 364.772 222.189 365.636 220.365 365.809L188.747 368.676C187.703 368.776 186.649 368.644 185.662 368.29C184.674 367.936 183.777 367.368 183.034 366.628C181.696 365.288 180.945 363.473 180.943 361.58C180.941 359.687 181.689 357.87 183.023 356.527Z" fill="white"/>
<path d="M106.474 358.812L102.906 352.139C102.404 351.205 101.659 350.423 100.75 349.875C99.8866 349.358 98.9045 349.071 97.8982 349.042C96.8919 349.014 95.8952 349.245 95.0041 349.714L92.2984 351.137C90.9695 351.84 89.9592 353.023 89.474 354.446L87.8247 359.329C87.5504 360.134 87.4537 360.987 87.5414 361.832C87.629 362.677 87.8989 363.493 88.3323 364.224C88.7658 364.955 89.3525 365.583 90.0521 366.065C90.7517 366.546 91.5475 366.871 92.3846 367.016L99.8336 368.298C101.049 368.509 102.299 368.331 103.407 367.792C104.516 367.252 105.427 366.377 106.011 365.291L106.506 364.375C106.963 363.517 107.199 362.56 107.193 361.589C107.188 360.618 106.94 359.664 106.474 358.812Z" fill="white"/>
<path opacity="0.4" d="M282.21 327.249H395.701C396.663 327.249 397.612 327.025 398.472 326.593C399.332 326.161 400.079 325.534 400.653 324.762C401.227 323.99 401.612 323.094 401.778 322.146C401.944 321.199 401.886 320.225 401.609 319.304C399.022 310.68 394.063 297.194 386.614 290.317C385.786 289.559 384.769 289.038 383.671 288.807C370.293 285.972 348.787 284.086 332.832 282.986C325.601 282.491 318.348 283.569 311.572 286.144C304.797 288.72 298.659 292.732 293.582 297.906C287.512 304.038 282.03 310.726 277.208 317.881C276.603 318.788 276.256 319.841 276.203 320.93C276.15 322.018 276.393 323.1 276.906 324.061C277.42 325.022 278.184 325.826 279.118 326.388C280.051 326.949 281.12 327.247 282.21 327.249Z" fill="white"/>
<path d="M208.83 395.163C208.83 398.699 205.208 401.577 200.745 401.577C196.282 401.577 192.66 398.699 192.66 395.163C192.66 391.627 196.271 388.76 200.745 388.76C205.219 388.76 208.83 391.627 208.83 395.163Z" fill="#263238"/>
<path d="M143.686 356.312C146.338 356.312 147.632 359.028 146.576 362.37C145.519 365.712 142.522 368.439 139.86 368.439C137.197 368.439 135.914 365.722 136.971 362.37C138.027 359.017 141.035 356.312 143.686 356.312Z" fill="#263238"/>
<path d="M89.2906 395.163C89.2906 398.699 88.2127 401.577 87.0161 401.577C85.8195 401.577 84.7307 398.699 84.7307 395.163C84.7307 391.627 85.8087 388.76 87.0161 388.76C88.2234 388.76 89.2906 391.627 89.2906 395.163Z" fill="#263238"/>
<path d="M278.717 326.224V322.591C278.716 321.549 278.947 320.519 279.394 319.577C279.841 318.636 280.493 317.806 281.302 317.148C282.111 316.49 283.056 316.021 284.069 315.774C285.082 315.528 286.137 315.511 287.158 315.724L300.977 318.603C302.555 318.932 303.972 319.794 304.989 321.045C306.005 322.295 306.561 323.858 306.562 325.47V326.224C306.562 328.084 305.824 329.867 304.51 331.183C303.196 332.498 301.414 333.239 299.555 333.242H285.735C283.873 333.242 282.088 332.503 280.772 331.186C279.456 329.87 278.717 328.085 278.717 326.224Z" fill="#263238"/>
<path d="M351.428 284.495C351.428 284.495 349.585 284.312 346.372 284.031C360.58 313.137 356.958 327.248 356.958 327.248H367.803C367.91 309.526 351.428 284.495 351.428 284.495Z" fill="#263238"/>
<path opacity="0.2" d="M231.597 314.216C231.378 316.504 230.314 318.627 228.615 320.174C226.915 321.72 224.7 322.578 222.402 322.581H166.529C162.454 322.581 160.978 318.032 163.931 314.647C169.261 308.578 175.049 302.927 181.244 297.744C191.765 288.883 204.831 284.28 217.044 285.132L221.658 285.466C223.65 285.621 225.538 286.415 227.041 287.73C228.544 289.045 229.583 290.811 230.002 292.764C231.632 299.79 232.17 307.026 231.597 314.216Z" fill="#1976D2"/>
<path opacity="0.2" d="M358.252 411.872C358.109 411.872 357.972 411.815 357.871 411.714C357.769 411.613 357.713 411.476 357.713 411.333C357.713 400.423 363.275 355.438 364.73 348.701C366.143 342.158 366.143 334.849 364.73 330.095C364.69 329.957 364.707 329.81 364.775 329.685C364.844 329.559 364.96 329.466 365.097 329.426C365.234 329.389 365.38 329.407 365.505 329.475C365.63 329.543 365.723 329.657 365.765 329.793C367.221 334.709 367.221 342.222 365.765 348.927C364.31 355.632 358.769 400.467 358.769 411.333C358.769 411.472 358.715 411.606 358.619 411.706C358.522 411.807 358.391 411.866 358.252 411.872Z" fill="black"/>
<path opacity="0.2" d="M356.818 349.272H343.677C343.428 349.28 343.18 349.231 342.953 349.128C342.726 349.025 342.525 348.871 342.367 348.679C342.208 348.486 342.096 348.259 342.039 348.016C341.983 347.774 341.982 347.521 342.039 347.278L342.308 345.758C342.417 345.211 342.707 344.716 343.131 344.354C343.556 343.993 344.09 343.784 344.647 343.764H357.788C358.037 343.755 358.285 343.805 358.513 343.908C358.74 344.011 358.94 344.164 359.099 344.357C359.257 344.55 359.369 344.776 359.426 345.019C359.483 345.262 359.483 345.515 359.427 345.758L359.157 347.278C359.048 347.825 358.758 348.319 358.334 348.681C357.909 349.043 357.375 349.251 356.818 349.272Z" fill="black"/>
<path d="M396.574 185.934H395.496C395.497 183.189 395.101 180.459 394.321 177.827L395.399 177.525C396.195 180.257 396.591 183.089 396.574 185.934ZM391.928 172.146C389.459 167.715 385.853 164.022 381.481 161.449C377.11 158.876 372.131 157.515 367.059 157.507V156.429C372.324 156.434 377.493 157.846 382.03 160.518C386.567 163.19 390.308 167.026 392.866 171.629L391.928 172.146Z" fill="#1976D2"/>
<path d="M367.059 160.202C360.236 160.205 353.694 162.917 348.871 167.743C344.047 172.568 341.338 179.111 341.338 185.934C341.338 210.728 367.059 227.717 367.059 227.717C367.059 227.717 392.802 210.717 392.802 185.934C392.799 179.108 390.085 172.564 385.258 167.738C380.431 162.913 373.884 160.202 367.059 160.202ZM367.059 198.051C364.684 198.049 362.364 197.342 360.39 196.022C358.417 194.701 356.879 192.824 355.972 190.63C355.065 188.435 354.828 186.021 355.293 183.692C355.757 181.364 356.902 179.225 358.582 177.546C360.262 175.868 362.402 174.725 364.731 174.263C367.06 173.8 369.474 174.039 371.668 174.948C373.862 175.857 375.736 177.396 377.056 179.371C378.375 181.346 379.079 183.667 379.079 186.042C379.079 187.62 378.768 189.182 378.163 190.64C377.559 192.098 376.674 193.422 375.557 194.537C374.441 195.652 373.116 196.537 371.658 197.14C370.2 197.743 368.637 198.052 367.059 198.051Z" fill="#1976D2"/>
<path d="M321.212 447.068L327.723 446.96L329.599 431.868L323.098 431.976L321.212 447.068Z" fill="#B55B52"/>
<path d="M352.29 446.583L358.607 444.654L354.684 430.349L348.366 432.289L352.29 446.583Z" fill="#B55B52"/>
<path d="M358.414 442.757L351.363 446.389C351.249 446.451 351.159 446.549 351.108 446.669C351.057 446.789 351.048 446.922 351.083 447.047L352.592 452.771C352.629 452.91 352.697 453.039 352.79 453.148C352.884 453.257 353.001 453.343 353.133 453.4C353.265 453.458 353.408 453.484 353.551 453.478C353.695 453.471 353.835 453.433 353.961 453.364C356.214 452.157 357.799 451.208 360.656 449.688C362.413 448.783 367.803 446.239 370.228 444.977C372.654 443.716 371.738 441.161 370.638 441.463C365.679 442.789 361.626 443.177 359.535 442.627C359.158 442.528 358.758 442.574 358.414 442.757Z" fill="#263238"/>
<path d="M327.852 446.206L320.748 446.325C320.62 446.327 320.497 446.373 320.399 446.456C320.301 446.538 320.234 446.652 320.209 446.777L319.013 452.577C318.981 452.717 318.982 452.862 319.016 453.002C319.049 453.141 319.114 453.271 319.206 453.381C319.298 453.492 319.413 453.58 319.544 453.638C319.675 453.697 319.818 453.725 319.961 453.72C322.527 453.633 326.224 453.429 329.448 453.375C333.21 453.321 334.309 453.472 338.729 453.375C341.392 453.375 342.092 450.615 340.971 450.389C335.862 449.311 333.867 449.311 329.437 446.659C328.957 446.374 328.411 446.218 327.852 446.206Z" fill="#263238"/>
<path d="M337.737 249.072C339.214 252.037 340.885 255.174 342.556 258.16C344.227 261.146 345.995 264.121 347.881 266.913C348.367 267.603 348.819 268.325 349.315 268.983L350.533 270.643C350.781 270.966 350.921 271.117 350.965 271.193C351.008 271.268 351.029 271.376 351.342 271.398C352.487 271.191 353.551 270.668 354.414 269.888C355.007 269.436 355.611 268.918 356.204 268.368C356.797 267.819 357.389 267.183 357.907 266.676L362.208 269.069C361.849 270.021 361.424 270.947 360.936 271.84C360.455 272.753 359.9 273.626 359.276 274.448C358.613 275.347 357.854 276.171 357.012 276.906C356.012 277.796 354.853 278.487 353.595 278.944C352.019 279.519 350.308 279.612 348.679 279.213C347.152 278.839 345.739 278.099 344.561 277.057C344.301 276.837 344.052 276.603 343.817 276.356L343.472 276.001L343.225 275.72L342.276 274.642C341.64 273.92 341.058 273.176 340.454 272.486C338.151 269.526 336.028 266.43 334.094 263.216C333.145 261.62 332.207 259.982 331.345 258.375C330.483 256.769 329.642 255.141 328.844 253.32L337.737 249.072Z" fill="#B55B52"/>
<path d="M326.074 249.115C324.316 255.087 336.66 271.354 336.66 271.354L349.11 263.345C346.767 258.171 343.876 253.263 340.486 248.706C335.388 242.205 327.992 242.55 326.074 249.115Z" fill="#1976D2"/>
<g opacity="0.2">
<path opacity="0.2" d="M326.074 249.115C324.316 255.087 336.66 271.354 336.66 271.354L349.11 263.345C346.767 258.171 343.876 253.263 340.486 248.706C335.388 242.205 327.992 242.55 326.074 249.115Z" fill="black"/>
</g>
<path opacity="0.2" d="M333.663 256.122C336.217 257.2 339.99 263.388 341.952 267.98L336.67 271.376C333.714 267.43 331.058 263.268 328.725 258.925C330.396 257.071 332.304 255.551 333.663 256.122Z" fill="black"/>
<path d="M357.163 267.84L361.669 260.553L365.604 266.837C364.657 268.514 363.12 269.779 361.292 270.384L357.163 267.84Z" fill="#B55B52"/>
<path d="M367.954 260.628V262.881C367.954 263.585 367.71 264.267 367.264 264.811L365.625 266.837L361.691 260.553L365.755 259.076C366.003 258.988 366.269 258.961 366.53 258.997C366.792 259.033 367.04 259.131 367.256 259.283C367.471 259.435 367.647 259.637 367.768 259.871C367.89 260.105 367.953 260.364 367.954 260.628Z" fill="#B55B52"/>
<path d="M363.556 269.943L356.462 269.835L360.386 255.142L367.48 255.249L363.556 269.943Z" fill="#1976D2"/>
<path d="M364.278 269.943L357.185 269.835L361.109 255.142L368.202 255.249L364.278 269.943Z" fill="#263238"/>
<path opacity="0.2" d="M329.599 431.879L328.628 439.651L322.117 439.759L323.087 431.976L329.599 431.879Z" fill="black"/>
<path opacity="0.2" d="M348.366 432.289L354.694 430.349L356.71 437.722L350.382 439.663L348.366 432.289Z" fill="black"/>
<path d="M298.606 252.252C303.921 275.127 302.767 297.819 303.349 302.713L338.05 300.126C341.381 262.946 333.49 244.07 333.49 244.07C333.49 244.07 331.259 243.639 328.229 243.326C327.281 243.229 326.246 243.143 325.179 243.089C324.586 243.089 323.993 243.035 323.378 243.024C318.446 243.101 313.522 243.461 308.631 244.102C307.704 244.221 306.767 244.35 305.85 244.501L303.392 244.954H303.295C302.501 245.112 301.747 245.428 301.078 245.884C300.409 246.34 299.838 246.926 299.4 247.607C298.963 248.288 298.667 249.051 298.53 249.849C298.394 250.647 298.42 251.464 298.606 252.252Z" fill="#1976D2"/>
<g opacity="0.2">
<path opacity="0.2" d="M298.606 252.252C303.921 275.127 302.767 297.819 303.349 302.713L338.05 300.126C341.381 262.946 333.49 244.07 333.49 244.07C333.49 244.07 331.259 243.639 328.229 243.326C327.281 243.229 326.246 243.143 325.179 243.089C324.586 243.089 323.993 243.035 323.378 243.024C318.446 243.101 313.522 243.461 308.631 244.102C307.704 244.221 306.767 244.35 305.85 244.501L303.392 244.954H303.295C302.501 245.112 301.747 245.428 301.078 245.884C300.409 246.34 299.838 246.926 299.4 247.607C298.963 248.288 298.667 249.051 298.53 249.849C298.394 250.647 298.42 251.464 298.606 252.252Z" fill="black"/>
</g>
<path opacity="0.2" d="M304.481 257.082L300.492 262.203C300.498 262.267 300.498 262.332 300.492 262.397C301.053 265.868 301.484 269.263 301.808 272.541C305.634 267.83 305.074 259.324 304.481 257.082Z" fill="black"/>
<path d="M310.302 233.991C311.133 237.484 311.079 241.365 308.578 244.146C311.348 246.518 314.938 249.223 320.587 249.008C326.235 248.792 324.974 244.976 323.325 243.046C318.506 242.27 318.495 239.133 318.452 235.684C318.45 235.335 318.337 234.995 318.13 234.714C317.923 234.433 317.632 234.226 317.299 234.121L311.995 232.417C311.771 232.346 311.532 232.335 311.302 232.386C311.073 232.438 310.861 232.549 310.688 232.709C310.516 232.87 310.39 233.073 310.322 233.298C310.254 233.523 310.247 233.763 310.302 233.991Z" fill="#B55B52"/>
<path d="M325.556 271.3C322.645 271.3 319.961 267.808 319.433 263.345C319.226 262.163 319.262 260.952 319.538 259.784C319.814 258.617 320.325 257.517 321.039 256.553C321.376 256.147 321.797 255.819 322.274 255.591C322.751 255.364 323.271 255.244 323.799 255.238C326.699 255.238 329.394 258.731 329.911 263.194C330.119 264.375 330.084 265.586 329.81 266.753C329.536 267.921 329.027 269.02 328.316 269.985C327.976 270.389 327.555 270.716 327.079 270.942C326.602 271.169 326.083 271.291 325.556 271.3ZM323.81 256.316C323.434 256.323 323.064 256.412 322.727 256.578C322.39 256.744 322.093 256.982 321.858 257.276C321.251 258.127 320.82 259.091 320.591 260.111C320.361 261.131 320.338 262.186 320.522 263.215C320.964 267.021 323.271 270.222 325.567 270.222C325.944 270.218 326.316 270.129 326.655 269.963C326.995 269.797 327.293 269.558 327.529 269.263C328.134 268.411 328.564 267.447 328.793 266.427C329.022 265.408 329.047 264.353 328.865 263.323C328.445 259.518 326.138 256.316 323.853 256.316H323.81Z" fill="#1976D2"/>
<path opacity="0.2" d="M318.463 235.877L313.127 236.567C313.245 236.804 313.396 237.03 313.536 237.257C314.55 238.874 316.77 239.941 319.077 240.329C318.578 238.901 318.369 237.387 318.463 235.877Z" fill="black"/>
<path d="M325.384 222.068C328.348 222.564 333.889 219.2 332.595 214.716C330.935 216.796 325.384 216.096 325.384 216.096V222.068Z" fill="#263238"/>
<path d="M313.806 226.812C314.129 229.809 310.432 235.145 306.033 233.582C308.189 232.051 307.844 226.456 307.844 226.456L313.806 226.812Z" fill="#263238"/>
<path d="M309.462 220.99C308.664 227.394 307.866 231.113 310.464 235.004C314.356 240.793 322.721 239.316 325.416 233.312C327.841 227.922 328.736 218.317 323.001 214.63C321.745 213.815 320.302 213.334 318.808 213.232C317.314 213.13 315.819 213.411 314.464 214.048C313.109 214.684 311.938 215.656 311.063 216.871C310.188 218.085 309.636 219.503 309.462 220.99Z" fill="#B55B52"/>
<path d="M308.578 227.458C310.141 229.108 314.442 222.37 313.655 219.912C315.272 220.624 318.377 219.265 318.183 216.592C323.023 219.179 330.041 221.227 330.148 216.592C330.256 211.957 325.836 208.453 321.524 208.087C322.042 209.477 320.673 210.07 317.859 209.477C315.046 208.884 304.201 203.893 305.397 213.865C301.344 214.102 300.816 219.233 308.578 227.458Z" fill="#263238"/>
<path d="M305.408 224.968C305.633 226.576 306.485 228.03 307.78 229.011C309.505 230.293 310.583 228.935 310.744 226.908C310.895 225.076 310.744 222.208 308.685 221.723C308.238 221.626 307.773 221.641 307.332 221.769C306.892 221.897 306.491 222.133 306.166 222.456C305.84 222.778 305.6 223.177 305.468 223.616C305.336 224.054 305.315 224.519 305.408 224.968Z" fill="#B55B52"/>
<path d="M315.186 301.84L337.996 300.147C337.996 300.147 340.95 346.965 340.724 366.811C340.497 387.465 331.022 438.099 331.022 438.099L320.004 438.272C320.004 438.272 320.878 389.158 320.878 368.881C320.878 341.575 315.153 301.84 315.153 301.84" fill="#263238"/>
<path opacity="0.2" d="M324.004 350.512C324.306 351.859 332.789 389.816 335.527 411.958C336.983 402.752 338.481 392.414 339.495 383.283L324.004 350.512Z" fill="black"/>
<path d="M325.685 301.075C325.685 301.075 343.052 343.613 346.965 362.273C351.277 382.701 358.122 434.37 358.122 434.37L346.34 436.202C346.34 436.202 337.425 397.578 332.434 377.85C326.763 355.363 304.276 319.757 303.328 302.735L325.685 301.075Z" fill="#263238"/>
<path d="M359.599 435.372L344.96 438.8L343.117 433.162L359.103 430.424L359.599 435.372Z" fill="#1976D2"/>
<path d="M332.444 438.348L319.314 438.553L319.25 434.316L333.911 433.863L332.444 438.348Z" fill="#1976D2"/>
<path d="M318.387 224.31C318.29 224.828 318.484 225.291 318.819 225.388C319.153 225.485 319.508 225.087 319.605 224.569C319.702 224.052 319.508 223.588 319.163 223.491C318.819 223.394 318.484 223.793 318.387 224.31Z" fill="#263238"/>
<path d="M324.769 225.669C324.672 226.176 324.866 226.65 325.2 226.747C325.535 226.844 325.89 226.445 325.987 225.928C326.084 225.41 325.89 224.936 325.556 224.85C325.222 224.764 324.866 225.152 324.769 225.669Z" fill="#263238"/>
<path d="M322.667 225.539C322.987 227.231 323.538 228.87 324.306 230.412C323.905 230.597 323.469 230.693 323.028 230.693C322.587 230.693 322.151 230.597 321.751 230.412L322.667 225.539Z" fill="#A02724"/>
<path d="M320.662 231.996C320.085 231.877 319.538 231.64 319.056 231.3C318.574 230.961 318.167 230.527 317.859 230.024C317.84 229.986 317.836 229.943 317.848 229.903C317.86 229.863 317.887 229.829 317.924 229.808C317.96 229.792 318.001 229.79 318.039 229.801C318.076 229.813 318.108 229.839 318.129 229.873C318.48 230.423 318.956 230.884 319.517 231.217C320.079 231.55 320.711 231.747 321.363 231.792C321.397 231.801 321.428 231.821 321.449 231.849C321.471 231.878 321.483 231.912 321.483 231.948C321.483 231.984 321.471 232.018 321.449 232.046C321.428 232.075 321.397 232.095 321.363 232.104C321.126 232.088 320.892 232.052 320.662 231.996Z" fill="#263238"/>
<path d="M317.751 222.004C317.701 221.981 317.654 221.952 317.611 221.917C317.558 221.856 317.528 221.778 317.528 221.696C317.528 221.615 317.558 221.536 317.611 221.475C317.968 221.139 318.399 220.893 318.869 220.756C319.34 220.619 319.836 220.596 320.317 220.688C320.395 220.711 320.461 220.763 320.501 220.833C320.541 220.904 320.553 220.987 320.533 221.066C320.512 221.143 320.463 221.209 320.394 221.249C320.325 221.289 320.243 221.301 320.166 221.281C319.78 221.212 319.384 221.235 319.009 221.35C318.634 221.464 318.292 221.666 318.01 221.939C317.974 221.968 317.933 221.989 317.888 222C317.843 222.011 317.797 222.013 317.751 222.004Z" fill="#263238"/>
<path d="M328.208 224.062C328.159 224.046 328.114 224.018 328.078 223.98C328.043 223.943 328.017 223.897 328.003 223.846C327.916 223.47 327.739 223.121 327.487 222.828C327.236 222.535 326.917 222.308 326.559 222.165C326.48 222.14 326.415 222.085 326.377 222.013C326.338 221.94 326.33 221.855 326.354 221.777C326.379 221.698 326.433 221.633 326.506 221.595C326.579 221.556 326.663 221.548 326.742 221.572C327.203 221.754 327.612 222.045 327.936 222.421C328.259 222.796 328.485 223.245 328.596 223.728C328.609 223.767 328.614 223.808 328.61 223.849C328.606 223.89 328.593 223.929 328.573 223.965C328.552 224 328.525 224.031 328.492 224.056C328.458 224.08 328.421 224.097 328.38 224.105C328.32 224.114 328.258 224.098 328.208 224.062Z" fill="#263238"/>
<path d="M360.85 442.778C360.334 443.03 359.792 443.221 359.233 443.35C359.21 443.368 359.181 443.378 359.152 443.378C359.122 443.378 359.094 443.368 359.071 443.35C359.053 443.324 359.044 443.294 359.044 443.263C359.044 443.233 359.053 443.202 359.071 443.177C359.211 442.94 360.483 440.827 361.292 440.827C361.383 440.827 361.473 440.852 361.551 440.9C361.629 440.947 361.692 441.015 361.734 441.097C361.818 441.224 361.87 441.37 361.885 441.523C361.9 441.675 361.878 441.828 361.82 441.97C361.592 442.337 361.252 442.62 360.85 442.778ZM359.524 442.951C360.314 442.834 361.03 442.422 361.529 441.797C361.567 441.7 361.58 441.595 361.567 441.491C361.553 441.388 361.514 441.289 361.453 441.204C361.389 441.097 361.335 441.086 361.281 441.086C360.861 441.086 360.052 442.132 359.524 442.951Z" fill="#1976D2"/>
<path d="M359.265 443.338H359.179C359.151 443.334 359.125 443.323 359.102 443.306C359.08 443.289 359.061 443.267 359.049 443.241C358.658 442.397 358.53 441.454 358.683 440.536C358.728 440.425 358.795 440.325 358.881 440.242C358.966 440.158 359.067 440.093 359.179 440.051C359.282 439.999 359.399 439.985 359.511 440.01C359.623 440.036 359.723 440.1 359.793 440.191C360.257 440.773 359.793 442.638 359.319 443.274C359.315 443.288 359.308 443.3 359.299 443.312C359.289 443.323 359.278 443.332 359.265 443.338ZM359.265 440.396C359.148 440.455 359.056 440.555 359.006 440.676C358.878 441.404 358.968 442.155 359.265 442.832C359.621 442.066 359.869 440.73 359.599 440.396C359.599 440.396 359.513 440.288 359.33 440.396H359.265Z" fill="#1976D2"/>
<path d="M328.51 447.101C328.482 447.09 328.458 447.07 328.441 447.046C328.424 447.021 328.415 446.991 328.415 446.961C328.415 446.931 328.424 446.901 328.441 446.876C328.458 446.851 328.482 446.832 328.51 446.821C328.801 446.659 331.399 445.29 332.196 445.743C332.27 445.785 332.332 445.844 332.377 445.915C332.422 445.987 332.449 446.068 332.455 446.152C332.472 446.291 332.455 446.432 332.406 446.563C332.357 446.695 332.278 446.812 332.175 446.907C331.474 447.543 329.609 447.317 328.553 447.123L328.51 447.101ZM332.024 445.969C330.988 446.029 329.981 446.34 329.092 446.875C330.057 447.15 331.088 447.073 332.002 446.659C332.071 446.596 332.123 446.516 332.153 446.428C332.183 446.339 332.191 446.244 332.175 446.152C332.176 446.119 332.168 446.086 332.15 446.057C332.133 446.028 332.108 446.005 332.078 445.991L332.024 445.969Z" fill="#1976D2"/>
<path d="M328.51 447.101C328.489 447.084 328.472 447.063 328.461 447.039C328.449 447.014 328.444 446.988 328.445 446.961C328.502 446.041 328.841 445.16 329.415 444.438C329.651 444.237 329.957 444.137 330.267 444.158C330.698 444.158 330.817 444.417 330.849 444.589C330.978 445.322 329.447 446.745 328.693 447.112C328.665 447.13 328.633 447.14 328.599 447.138C328.566 447.136 328.535 447.123 328.51 447.101ZM330.353 444.482C330.304 444.468 330.251 444.468 330.202 444.482C330.089 444.469 329.975 444.48 329.867 444.515C329.759 444.551 329.66 444.609 329.577 444.686C329.098 445.256 328.808 445.961 328.747 446.702C329.544 446.217 330.579 445.085 330.504 444.654C330.504 444.589 330.482 444.525 330.353 444.482Z" fill="#1976D2"/>
<path d="M308.966 254.278C306.81 258.105 304.654 262.191 302.713 266.212C300.759 270.142 299.084 274.206 297.701 278.372C297.539 278.878 297.42 279.374 297.269 279.87C297.215 280.097 297.118 280.42 297.086 280.571C297.051 280.695 297.022 280.821 297 280.948C296.907 281.626 296.925 282.314 297.054 282.986C297.488 284.831 298.196 286.601 299.156 288.235C301.393 292.003 304 295.538 306.939 298.789L303.813 302.541C299.644 299.784 295.939 296.381 292.839 292.461C291.111 290.277 289.773 287.812 288.882 285.174C288.369 283.599 288.139 281.946 288.203 280.291C288.203 279.849 288.29 279.385 288.343 278.943C288.397 278.501 288.462 278.275 288.527 277.93C288.656 277.305 288.775 276.647 288.915 276.032C290.122 271.245 291.761 266.576 293.809 262.083C295.774 257.668 298.006 253.377 300.493 249.233L308.966 254.278Z" fill="#B55B52"/>
<path d="M302.196 245.45C296.191 247.099 290.338 263.97 290.338 263.97L304.794 267.98C307.327 264.428 309.348 260.538 310.798 256.424C313.838 248.22 309.462 243.467 302.196 245.45Z" fill="#1976D2"/>
<g opacity="0.2">
<path opacity="0.2" d="M302.196 245.45C296.191 247.099 290.338 263.97 290.338 263.97L304.794 267.98C307.327 264.428 309.348 260.538 310.798 256.424C313.838 248.22 309.462 243.467 302.196 245.45Z" fill="black"/>
</g>
<path d="M304.168 297.679L310.766 299.414L308.146 305.613C308.146 305.613 302.228 304.362 302.26 301.139L304.168 297.679Z" fill="#B55B52"/>
<path d="M313.299 303.619L311.348 308.524L308.146 305.614L310.766 299.415L313.299 303.619Z" fill="#B55B52"/>
</svg>
