<svg xmlns="http://www.w3.org/2000/svg" viewBox="0 0 170 170"><defs><style>.cls-1{fill:#1d2554;}.cls-2{fill:#fff;}.cls-3{fill:#00b0d8;}</style></defs><title>FADU_Avatar</title><g id="Redes_Sociales" data-name="Redes Sociales"><rect class="cls-1" width="170" height="170" rx="85" ry="85"/><path class="cls-2" d="M45.37,76.73c0,5.49-3.24,8.16-8.67,8.16s-8.63-2.64-8.63-8.16V64.11h4.46V76.73c0,2.22.57,4.41,4.17,4.41,3.19,0,4.21-1.39,4.21-4.41V64.11h4.46Z"/><path class="cls-2" d="M49.2,64.11h9.55c3.87,0,6.48,1.26,6.48,5a4.45,4.45,0,0,1-2.75,4.23,5,5,0,0,1,3.72,5.14c0,4.12-3.5,5.89-7.16,5.89H49.2Zm4.47,8.22h4.52c1.56,0,2.72-.71,2.72-2.42,0-1.93-1.48-2.33-3.07-2.33H53.67Zm0,8.61h4.77c1.76,0,3.3-.57,3.3-2.67s-1.31-2.9-3.21-2.9H53.67Z"/><path class="cls-2" d="M74.75,64.11h4.57l7.59,20.3H82.28l-1.54-4.52H73.16l-1.59,4.52H67.05Zm-.43,12.45h5.26L77,69.12H77Z"/><path class="cls-2" d="M26.8,82a2.71,2.71,0,1,1-2.7-2.69A2.71,2.71,0,0,1,26.8,82Z"/><path class="cls-3" d="M99.2,80.13h7.68V84.4H89.71A12.26,12.26,0,0,1,90,80.5c1.88-2,8.82-7.62,8.82-10.63,0-1.08-.8-1.57-1.87-1.57a4.7,4.7,0,0,0-1.54.24l-.89,2.52a30.35,30.35,0,0,1-4.36-.24l-.34-5.29a16.52,16.52,0,0,1,7.93-1.78c4.73,0,8.26,1.51,8.26,5.9C106,73.58,103,75.8,99.2,80.13Z"/><path class="cls-3" d="M127.38,74.2c0,6.21-3.07,10.57-9.31,10.57s-9.34-4.36-9.34-10.57,3.16-10.45,9.34-10.45S127.38,68,127.38,74.2Zm-9.31-6c-2,0-2.15,3.81-2.15,6s.18,6.14,2.15,6.14c2.33,0,2.12-4,2.12-6.14S120.47,68.18,118.07,68.18Z"/><path class="cls-3" d="M148.49,74.2c0,6.21-3.07,10.57-9.31,10.57s-9.34-4.36-9.34-10.57,3.16-10.45,9.34-10.45S148.49,68,148.49,74.2Zm-9.31-6c-2,0-2.15,3.81-2.15,6s.18,6.14,2.15,6.14c2.33,0,2.12-4,2.12-6.14S141.57,68.18,139.18,68.18Z"/><path class="cls-2" d="M30.2,98.7H27.94V97H30.2V95.37c0-2.09,1-3.18,3.36-3.18h1.76v1.86H34.19c-1,0-1.56.36-1.56,1.32V97h2.66v1.7H32.63v12.14H30.2Z"/><path class="cls-2" d="M37.35,101.18c0-3.15,1.51-4.55,5.21-4.55,4.72,0,4.72,2.54,4.72,4v7.73c0,.56,0,1.11.76,1.11a.94.94,0,0,0,.58-.13v1.55a10.9,10.9,0,0,1-1.42.13c-.93,0-2.09,0-2.2-1.79h-.06a4.51,4.51,0,0,1-3.74,2c-2.89,0-4.23-1.55-4.23-4a3.63,3.63,0,0,1,2.93-3.82l3.27-.88c1.77-.49,1.77-.93,1.77-2.09s-.87-2-2.49-2a2.44,2.44,0,0,0-2.67,2.71v.13Zm7.5,2.12c-.9.85-3,1-4.14,1.63a2.15,2.15,0,0,0-1.19,2.19c0,1.4.55,2.38,2.2,2.38a3,3,0,0,0,3.13-2.64Z"/><path class="cls-2" d="M61.56,110.84H59.25v-1.7h-.06a3.52,3.52,0,0,1-3.36,2.06c-3.68,0-5.07-2.92-5.07-7.28,0-2.89.52-7.29,4.89-7.29a3.82,3.82,0,0,1,3.42,1.94h.06V92.4h2.43Zm-5.41-1.5c2.69,0,3.12-2.27,3.12-5.42,0-2.69-.52-5.43-3.12-5.43-2.26,0-2.84,2.12-2.84,5.43S53.89,109.34,56.15,109.34Z"/><path class="cls-2" d="M75.73,110.84H73.41v-1.63h-.06a4.24,4.24,0,0,1-3.77,2c-4.08,0-4.08-2.76-4.08-4.39V97h2.43v9.55c0,1.06.09,2.79,2.29,2.79a2.85,2.85,0,0,0,3.07-2.79V97h2.44Z"/></g></svg>