<?xml version="1.0" encoding="utf-8"?>
<!-- Generator: Adobe Illustrator 16.0.0, SVG Export Plug-In . SVG Version: 6.00 Build 0)  -->
<!DOCTYPE svg PUBLIC "-//W3C//DTD SVG 1.1//EN" "http://www.w3.org/Graphics/SVG/1.1/DTD/svg11.dtd">
<svg version="1.1" id="Capa_1" xmlns="http://www.w3.org/2000/svg" xmlns:xlink="http://www.w3.org/1999/xlink" x="0px" y="0px"
	 width="1600px" height="420px" viewBox="693.825 1133.825 1600 420" enable-background="new 693.825 1133.825 1600 420"
	 xml:space="preserve">
<path fill="#48C0F3" d="M758.859,1350.396"/>
<g>
	<g>
		<path d="M1220.104,1264.1h-11.812c-0.984-4.134-2.953-7.479-6.102-10.236c-3.15-2.756-7.284-3.937-12.205-3.937
			c-6.299,0-11.418,2.362-15.158,7.283c-3.74,4.922-5.708,11.221-5.708,19.488s1.968,14.764,5.708,19.488s8.859,7.087,15.355,7.087
			c4.921,0,8.857-1.182,12.008-3.544c3.148-2.361,5.314-5.905,6.299-10.236h11.811c-0.984,7.284-4.134,12.992-9.646,17.521
			c-5.512,4.527-12.401,6.89-20.473,6.89c-10.039,0-18.11-3.347-24.212-10.039c-6.103-6.693-9.056-15.749-9.056-27.166
			c0-11.221,2.953-20.275,9.056-27.165c6.102-6.89,13.976-10.236,24.016-10.236c8.661,0,15.551,2.362,20.865,7.283
			C1216.167,1251.502,1219.12,1257.407,1220.104,1264.1z"/>
		<path d="M1252.191,1313.706c-7.087,0-12.992-1.968-17.323-5.905c-4.331-3.937-6.693-9.252-6.693-15.551
			c0-6.103,2.362-11.024,6.89-14.765c4.527-3.739,11.023-5.708,19.292-6.299l20.669-1.181v-6.103c0-4.331-1.378-7.874-4.134-10.236
			s-6.692-3.74-11.614-3.74c-4.527,0-8.268,0.984-11.221,2.953c-2.952,1.968-4.725,4.724-5.512,8.464h-11.614
			c0.394-6.496,3.149-11.614,8.269-15.748c5.117-4.134,11.811-6.103,20.078-6.103c8.465,0,15.158,2.166,20.079,6.3
			s7.479,10.039,7.479,17.126v49.803h-11.416v-12.401h-0.197c-2.166,4.134-5.315,7.48-9.646,9.843
			C1261.246,1312.526,1257.112,1313.706,1252.191,1313.706z M1254.947,1303.47c5.709,0,10.433-1.771,14.369-5.314
			c3.938-3.544,5.709-7.874,5.709-12.992v-5.905l-19.291,1.181c-4.922,0.394-8.662,1.575-11.221,3.543
			c-2.559,1.969-3.938,4.725-3.938,8.071s1.379,6.103,3.938,8.268S1250.616,1303.47,1254.947,1303.47z M1264.199,1230.241h-10.434
			l14.567-20.669h12.992L1264.199,1230.241z"/>
		<path d="M1306.324,1223.156h12.009v17.322h13.976v9.843h-13.976v42.717c0,3.347,0.787,5.709,2.165,7.283
			c1.378,1.575,3.74,2.362,6.693,2.362c1.969,0,3.543-0.196,4.921-0.394v10.039c-1.575,0.394-4.134,0.591-7.677,0.591
			c-6.693,0-11.221-1.575-14.174-4.527c-2.953-2.953-4.134-7.874-4.134-14.764v-43.308h-10.63v-9.843h10.63v-17.322H1306.324z"/>
		<path d="M1390.773,1291.856h11.812c-0.984,6.3-4.331,11.614-9.843,15.748c-5.512,4.135-12.205,6.103-20.078,6.103
			c-10.236,0-18.308-3.346-24.213-10.039c-5.906-6.693-8.858-15.551-8.858-26.969c0-11.221,2.952-20.275,8.858-27.165
			c5.905-6.89,13.779-10.236,23.622-10.236c9.646,0,17.323,3.347,23.031,9.843c5.709,6.496,8.465,15.157,8.465,26.181v4.527h-51.575
			v0.788c0,6.89,1.969,12.401,5.709,16.535s8.858,6.299,15.354,6.299c4.528,0,8.465-0.984,11.615-3.149
			C1387.821,1298.156,1389.789,1295.4,1390.773,1291.856z M1371.876,1249.73c-5.512,0-10.235,1.969-13.779,5.709
			s-5.709,8.858-6.103,14.764h39.174c-0.197-6.103-1.969-11.023-5.512-14.961C1382.113,1251.305,1377.585,1249.73,1371.876,1249.73z
			"/>
		<path d="M1442.939,1313.706c-9.252,0-16.732-3.346-22.244-10.236c-5.512-6.89-8.465-15.748-8.465-26.968
			c0-11.221,2.756-20.276,8.465-26.969c5.709-6.693,12.992-10.236,22.047-10.236c5.118,0,9.646,1.181,13.583,3.543
			s7.087,5.512,9.252,9.449h0.196v-39.567h12.008v99.804h-11.416v-12.205h-0.197c-2.362,4.134-5.512,7.48-9.646,9.843
			C1452.389,1312.526,1448.058,1313.706,1442.939,1313.706z M1445.104,1249.927c-6.299,0-11.417,2.362-15.157,7.283
			c-3.74,4.922-5.512,11.221-5.512,19.488c0,8.071,1.771,14.567,5.512,19.488c3.74,4.922,8.858,7.283,15.157,7.283
			c6.3,0,11.221-2.361,14.961-7.283c3.739-4.921,5.708-11.221,5.708-19.291c0-8.071-1.968-14.567-5.708-19.292
			C1456.325,1252.88,1451.404,1249.927,1445.104,1249.927z"/>
		<path d="M1494.121,1312.526v-72.048h11.417v11.812h0.196c1.182-3.938,3.347-7.284,6.496-9.449
			c3.15-2.165,6.693-3.543,11.023-3.543c0.984,0,2.56,0.196,4.922,0.394v11.614c-1.379-0.394-3.347-0.787-6.496-0.787
			c-4.725,0-8.465,1.574-11.221,4.724c-2.756,3.15-4.134,7.087-4.134,12.205v44.882h-12.204V1312.526z"/>
		<path d="M1557.506,1313.706c-7.086,0-12.991-1.968-17.322-5.905c-4.33-3.937-6.693-9.252-6.693-15.551
			c0-6.103,2.363-11.024,6.891-14.765c4.527-3.739,11.023-5.708,19.291-6.299l20.669-1.181v-6.103c0-4.331-1.378-7.874-4.134-10.236
			s-6.693-3.74-11.614-3.74c-4.527,0-8.268,0.984-11.22,2.953c-2.953,1.968-4.725,4.724-5.512,8.464h-11.615
			c0.395-6.496,3.15-11.614,8.268-15.748c5.119-4.134,11.812-6.103,20.079-6.103c8.465,0,15.157,2.166,20.079,6.3
			s7.48,10.039,7.48,17.126v49.803h-11.418v-12.401h-0.196c-2.165,4.134-5.315,7.48-9.646,9.843
			C1566.562,1312.526,1562.23,1313.706,1557.506,1313.706z M1560.065,1303.47c5.709,0,10.433-1.771,14.37-5.314
			c3.938-3.544,5.709-7.874,5.709-12.992v-5.905l-19.291,1.181c-4.922,0.394-8.662,1.575-11.221,3.543
			c-2.56,1.969-3.938,4.725-3.938,8.071s1.378,6.103,3.938,8.268C1552.191,1302.486,1555.734,1303.47,1560.065,1303.47z"/>
	</g>
	<g>
		<path d="M1172.467,1376.502c9.842-10.236,23.229-15.552,39.96-15.552c16.732,0,30.118,5.118,39.961,15.552
			c9.843,10.433,14.764,24.212,14.764,41.928c0,17.717-4.921,31.693-14.764,41.93s-23.229,15.355-39.961,15.355
			c-16.929,0-30.315-5.119-40.157-15.355c-9.843-10.236-14.764-24.213-14.764-41.93
			C1157.506,1400.714,1162.624,1386.935,1172.467,1376.502z M1231.521,1393.431c-4.725-6.299-11.023-9.252-18.897-9.252
			s-14.173,3.149-18.897,9.252c-4.725,6.3-7.087,14.567-7.087,25.197c0,10.434,2.362,18.898,7.087,25.197s11.023,9.252,18.897,9.252
			s14.173-3.15,18.897-9.252c4.725-6.299,7.087-14.566,7.087-25.197C1238.608,1407.998,1236.246,1399.533,1231.521,1393.431z"/>
		<path d="M1331.916,1475.911c-16.732,0-29.922-5.117-39.567-15.156s-14.37-24.213-14.37-42.324c0-17.913,4.725-32.085,14.37-42.125
			c9.646-10.039,22.835-15.157,39.37-15.157c9.252,0,17.717,1.771,25.197,5.512s13.582,8.858,17.913,15.748
			c4.527,6.693,6.692,14.37,7.087,23.031h-27.166c-0.59-6.496-3.149-11.811-7.48-15.748c-4.33-3.937-9.449-5.905-15.748-5.905
			c-7.677,0-13.779,3.149-18.307,9.252c-4.527,6.3-6.693,14.567-6.693,25.393c0,10.828,2.166,19.488,6.693,25.592
			c4.527,6.299,10.63,9.252,18.504,9.252c6.299,0,11.417-1.969,15.551-5.709c4.135-3.74,6.693-8.859,7.48-15.551h27.166
			c-0.591,13.188-5.709,23.621-14.961,31.693C1358.097,1471.975,1346.285,1475.911,1331.916,1475.911z"/>
		<path d="M1462.625,1473.942l-7.087-24.408h-36.221l-7.087,24.408h-28.74l37.205-111.023h34.449l37.205,111.023H1462.625z
			 M1437.23,1386.541l-12.401,42.717h25.394l-12.401-42.717H1437.23z"/>
		<path d="M1625.026,1473.942h-24.804v-69.291h-0.59l-27.362,68.111h-16.142l-27.56-68.111h-0.591v69.291h-24.803v-111.023h32.678
			l27.952,71.259h0.591l27.953-71.259h32.677V1473.942z"/>
		<path d="M1641.759,1362.919h48.031c12.008,0,21.653,3.543,28.937,10.63c7.284,7.087,11.024,16.732,11.024,28.544
			c0,11.811-3.937,21.259-11.614,28.345c-7.678,7.088-17.717,10.631-30.118,10.631h-18.11v32.48h-28.149V1362.919z
			 M1669.908,1384.573v35.629h12.205c6.102,0,10.826-1.574,13.977-4.527c3.346-3.149,4.921-7.48,4.921-13.188
			c0-5.709-1.575-10.04-4.921-13.189c-3.348-2.952-7.875-4.527-13.977-4.527h-12.205V1384.573z"/>
		<path d="M1754.16,1376.502c9.843-10.236,23.229-15.552,39.961-15.552s30.118,5.118,39.961,15.552
			c9.842,10.433,14.764,24.212,14.764,41.928c0,17.717-4.922,31.693-14.764,41.93c-9.843,10.236-23.229,15.355-39.961,15.355
			c-16.93,0-30.315-5.119-40.158-15.355c-9.842-10.236-14.764-24.213-14.764-41.93
			C1739.199,1400.714,1744.121,1386.935,1754.16,1376.502z M1813.019,1393.431c-4.725-6.299-11.023-9.252-18.897-9.252
			s-14.174,3.149-18.897,9.252c-4.725,6.3-7.087,14.567-7.087,25.197c0,10.434,2.362,18.898,7.087,25.197
			c4.724,6.299,11.023,9.252,18.897,9.252s14.174-3.15,18.897-9.252c4.725-6.299,7.087-14.566,7.087-25.197
			C1820.105,1407.998,1817.743,1399.533,1813.019,1393.431z"/>
	</g>
	<g>
		<path d="M1954.751,1212.919h24.213c10.63,0,19.095,3.149,25,9.448c5.905,6.3,9.056,15.158,9.056,26.575
			s-2.953,20.275-9.056,26.575c-6.103,6.299-14.37,9.448-25,9.448h-24.213V1212.919z M1963.609,1220.99v55.906h14.566
			c8.071,0,14.371-2.362,18.898-7.284c4.527-4.921,6.693-11.614,6.693-20.669s-2.166-15.945-6.496-20.866
			c-4.331-4.921-10.631-7.283-18.898-7.283h-14.764V1220.99z"/>
		<path d="M2084.869,1255.241c0,9.843-2.756,17.323-8.07,22.835c-5.315,5.512-12.795,8.268-22.441,8.268
			c-10.039,0-18.109-3.346-24.016-10.236c-5.906-6.89-9.055-15.944-9.055-27.362c0-11.22,2.952-20.275,8.857-26.968
			c5.906-6.693,13.977-10.04,24.016-10.04c7.875,0,14.371,2.166,19.883,6.496c5.512,4.331,8.857,10.04,10.236,17.126h-9.449
			c-1.575-4.921-4.134-8.661-7.678-11.22c-3.543-2.56-7.874-3.938-12.992-3.938c-7.48,0-13.188,2.559-17.52,7.48
			c-4.33,4.921-6.299,12.008-6.299,21.063c0,9.056,2.165,16.143,6.496,21.457c4.33,5.315,10.039,7.874,17.322,7.874
			c6.496,0,11.615-1.969,15.552-5.709c3.937-3.739,5.905-8.661,5.905-14.764v-1.378h-20.275v-7.874h29.33v6.89H2084.869z"/>
		<path d="M2096.483,1212.919h25.788c6.692,0,12.401,2.165,16.535,6.496c4.134,4.33,6.496,9.842,6.496,16.732
			c0,6.89-2.165,12.401-6.496,16.732c-4.331,4.33-9.843,6.496-16.732,6.496h-16.732v25.787h-9.055v-72.244H2096.483z
			 M2105.342,1220.793v30.314h14.37c5.118,0,9.056-1.378,12.008-3.937c2.953-2.56,4.331-6.496,4.331-11.221
			s-1.378-8.465-4.134-11.221s-6.89-3.937-12.008-3.937H2105.342L2105.342,1220.793z"/>
		<path d="M2185.264,1286.148c-10.04,0-17.914-3.347-23.623-10.04c-5.708-6.692-8.857-15.748-8.857-27.165
			s2.952-20.275,8.857-27.165c5.906-6.89,13.78-10.04,23.623-10.04c7.874,0,14.566,2.166,20.078,6.496
			c5.512,4.331,8.858,10.236,9.843,17.323h-9.056c-1.181-4.725-3.74-8.465-7.48-11.417c-3.74-2.953-8.268-4.331-13.385-4.331
			c-7.087,0-12.6,2.559-16.93,7.874c-4.33,5.314-6.299,12.205-6.299,21.063c0,8.858,2.165,15.945,6.299,21.063
			s9.843,7.874,16.93,7.874c5.314,0,9.842-1.181,13.385-3.74c3.544-2.559,6.103-5.905,7.48-10.236h9.056
			c-1.575,7.087-5.118,12.599-10.236,16.535C2199.83,1284.179,2193.138,1286.148,2185.264,1286.148z"/>
	</g>
	<g>
		<path d="M1971.483,1379.454h-18.308v-72.047h49.017v14.764h-30.709v16.339h27.953v13.977h-27.953V1379.454z"/>
		<path d="M2052.783,1379.454l-4.527-15.748h-23.623l-4.527,15.748h-18.701l24.213-72.047h22.441l24.213,72.047H2052.783z
			 M2036.248,1322.565l-8.071,27.756h16.535l-8.071-27.756H2036.248z"/>
		<path d="M2079.16,1307.407h29.331c11.024,0,19.488,3.149,25.591,9.252s9.055,14.961,9.055,26.378s-2.952,20.473-9.055,26.771
			c-6.103,6.3-14.566,9.646-25.394,9.646h-29.331v-72.047H2079.16z M2097.468,1322.171v42.52h8.465
			c5.905,0,10.63-1.771,13.583-5.512c2.952-3.74,4.725-9.055,4.725-16.142c0-6.693-1.575-11.812-4.725-15.551
			c-3.15-3.74-7.678-5.315-13.583-5.315H2097.468z"/>
		<path d="M2170.303,1307.407v44.488c0,4.134,1.181,7.48,3.347,9.843c2.165,2.362,5.314,3.543,9.448,3.543
			c4.135,0,7.283-1.181,9.449-3.543s3.347-5.709,3.347-9.843v-44.488h18.307v46.457c0,8.07-2.756,14.566-8.464,19.488
			c-5.709,4.921-13.189,7.283-22.639,7.283c-9.448,0-16.929-2.362-22.638-7.283c-5.708-4.922-8.464-11.418-8.464-19.488v-46.457
			H2170.303z"/>
	</g>
	<g>
		<path d="M1963.609,1401.896v46.259c0,5.512,1.771,10.039,5.314,13.584c3.544,3.543,8.269,5.314,14.371,5.314
			c6.102,0,11.023-1.771,14.369-5.314c3.348-3.545,5.315-8.072,5.315-13.584v-46.259h9.056v46.851c0,7.873-2.56,14.172-7.678,19.094
			s-12.205,7.283-20.866,7.283s-15.748-2.361-20.866-7.283s-7.677-11.221-7.677-19.094v-46.851H1963.609z"/>
		<path d="M2053.177,1473.942h-27.165v-72.046h27.361c6.103,0,11.221,1.574,14.961,4.921s5.709,7.678,5.709,12.993
			c0,3.74-1.182,7.086-3.544,10.236c-2.362,3.148-5.314,4.922-8.858,5.512v0.393c4.922,0.592,8.858,2.561,11.812,5.709
			c2.952,3.15,4.331,7.283,4.331,12.008c0,6.301-2.166,11.418-6.497,14.961S2060.854,1473.942,2053.177,1473.942z M2034.869,1409.77
			v23.229h13.583c5.315,0,9.448-0.984,12.204-3.15s4.135-5.117,4.135-8.857c0-3.544-1.182-6.3-3.544-8.269
			c-2.362-1.968-5.708-2.952-10.039-2.952H2034.869L2034.869,1409.77z M2034.869,1466.069h16.93c5.512,0,9.448-0.984,12.401-3.346
			c2.952-2.363,4.134-5.316,4.134-9.449c0-8.465-5.709-12.6-17.323-12.6h-16.142V1466.069z"/>
		<path d="M2134.673,1473.942l-7.283-20.668h-28.74l-7.283,20.668h-9.449l26.575-72.046h8.857l26.575,72.046H2134.673z
			 M2113.02,1412.723l-11.614,32.874h23.425l-11.614-32.874H2113.02z"/>
	</g>
	<path fill="#48C0F3" d="M940.97,1253.076c-49.212,0-89.173,39.961-89.173,89.174c0,49.212,39.961,89.172,89.173,89.172
		c49.213,0,89.174-39.96,89.174-89.172C1030.144,1293.037,990.183,1253.076,940.97,1253.076z M940.97,1395.202
		c-29.134,0-52.952-23.622-52.952-52.952c0-29.134,23.621-52.953,52.952-52.953s52.953,23.622,52.953,52.953
		C993.923,1371.384,970.104,1395.202,940.97,1395.202z"/>
	<path fill="#48C0F3" d="M843.726,1409.179c-1.969,0-3.937-0.787-5.314-2.165l-63.387-59.056c-1.574-1.574-2.559-3.543-2.559-5.708
		c0-2.166,0.984-4.331,2.559-5.709l63.387-59.056c3.149-2.952,8.07-2.756,11.22,0.395c2.953,3.149,2.756,8.07-0.394,11.22
		l-57.283,53.15l57.283,53.347c3.149,2.952,3.347,7.874,0.394,11.22C848.057,1408.392,845.891,1409.179,843.726,1409.179z"/>
	<path fill="#48C0F3" d="M1038.215,1409.179c-2.166,0-4.135-0.787-5.709-2.559c-2.953-3.149-2.756-8.071,0.394-11.221l57.283-53.347
		l-57.283-53.347c-3.149-2.952-3.347-7.874-0.394-11.221c2.952-3.149,7.874-3.346,11.221-0.394l63.386,59.056
		c1.574,1.574,2.559,3.543,2.559,5.708c0,2.166-0.984,4.331-2.559,5.709l-63.386,59.056
		C1041.954,1408.392,1040.183,1409.179,1038.215,1409.179z"/>
	
		<line fill="none" stroke="#00CCFF" stroke-width="5" stroke-miterlimit="10" x1="1899.633" y1="1210.36" x2="1899.633" y2="1478.077"/>
</g>
</svg>
